<?xml version="1.0" encoding="UTF-8" standalone="no"?>
<svg
   id="Calque_1"
   version="1.1"
   viewBox="0 0 632.8 71.5"
   sodipodi:docname="Logotype-6-Ecoles-Horizontal-Blanc.svg"
   inkscape:version="1.3.2 (091e20e, 2023-11-25)"
   xmlns:inkscape="http://www.inkscape.org/namespaces/inkscape"
   xmlns:sodipodi="http://sodipodi.sourceforge.net/DTD/sodipodi-0.dtd"
   xmlns="http://www.w3.org/2000/svg"
   xmlns:svg="http://www.w3.org/2000/svg">
  <sodipodi:namedview
     id="namedview107"
     pagecolor="#ffffff"
     bordercolor="#000000"
     borderopacity="0.25"
     inkscape:showpageshadow="2"
     inkscape:pageopacity="0.0"
     inkscape:pagecheckerboard="0"
     inkscape:deskcolor="#d1d1d1"
     inkscape:zoom="0.40929204"
     inkscape:cx="315.17837"
     inkscape:cy="36.648648"
     inkscape:window-width="3008"
     inkscape:window-height="1639"
     inkscape:window-x="0"
     inkscape:window-y="25"
     inkscape:window-maximized="1"
     inkscape:current-layer="Calque_1" />
  <!-- Generator: Adobe Illustrator 29.3.1, SVG Export Plug-In . SVG Version: 2.1.0 Build 151)  -->
  <defs
     id="defs1">
    <style
       id="style1">
      .st0, .st1, .st2 {
        fill: #fff;
      }

      .st1 {
        fill-rule: evenodd;
      }

      .st2 {
        stroke: #878787;
        stroke-width: .4px;
      }

      .st2, .st3 {
        stroke-miterlimit: 10;
      }

      .st3 {
        fill: none;
        stroke: #fff;
        stroke-width: .5px;
      }
    </style>
  </defs>
  <path
     class="st0"
     d="M40.4,36.5c-6.3-4.4-9.7-6.7-12.9-9.1-1.5,2.5-2.4,5.5-2.4,8.7,0,5.8,2.9,10.9,7.4,13.9,1.9-3.7,4.3-7.7,8-13.6"
     id="path1" />
  <path
     class="st0"
     d="M56.9,39.9c-2.6,2.8-6.8,3.2-9.8,1.3-.6-.4-4.7-3.2-4.7-3.2-4.6,6.4-6.9,9.7-9.4,12.6,2.6,1.6,5.6,2.5,8.8,2.5,9,0,16.4-7.1,16.8-16.1-.4,1.1-1,2.1-1.7,2.9"
     id="path2" />
  <path
     class="st0"
     d="M53.8,30.4c-.6-.4-4.2-2.8-4.2-2.8-3,4.4-3.4,5-5.7,8.2,0,0,3.9,2.5,4.5,2.9,2,1.3,4.7.9,6.3-.9.6-.7,1-1.5,1.2-2.4.3-1.6-.2-3.8-2.2-5.1"
     id="path3" />
  <path
     class="st0"
     d="M41.7,34.4c2.1-3.4,4.1-6.4,7.1-11,0,0,6.4,4.2,6.9,4.6.7.5,1.2,1,1.5,1.4-2.6-5.9-8.5-10.1-15.4-10.1s-10.4,2.6-13.5,6.7c3.4,2,7.5,4.6,13.3,8.4"
     id="path4" />
  <path
     class="st0"
     d="M25.9,24c0-1.2-.9-2.1-2.1-2.1-1.2,0-2.1.9-2.1,2.1,0,1.2.9,2.1,2.1,2.1,1.2,0,2.1-.9,2.1-2.1"
     id="path5" />
  <path
     class="st0"
     d="M27.4,17.8l1-.7c.6-.4,1.2-.4,1.6.2h0c.4.6.2,1.2-.4,1.6l-.5.4.6.8-.4.3-1.8-2.5ZM29.3,18.4c.3-.2.4-.6.2-.8h0c-.2-.3-.5-.3-.9,0l-.5.4.7.9.5-.4Z"
     id="path6" />
  <path
     class="st0"
     d="M31.5,16.9h0c-.4-.8,0-1.8.8-2.1.9-.4,1.8,0,2.1.8h0c.4.8,0,1.8-.8,2.1-.9.4-1.8,0-2.1-.8M34,15.8h0c-.2-.6-.9-.8-1.4-.6-.6.2-.8.9-.5,1.4h0c.2.6.9.8,1.4.6.6-.3.8-.9.5-1.4"
     id="path7" />
  <polygon
     class="st0"
     points="35.9 13.6 36.4 13.5 37 16 38.6 15.7 38.7 16.2 36.5 16.6 35.9 13.6"
     id="polygon7" />
  <polygon
     class="st0"
     points="40.3 14.8 38.9 13 39.6 12.9 40.5 14.3 41.3 12.8 42 12.8 40.8 14.7 40.9 16 40.3 16 40.3 14.8"
     id="polygon8" />
  <polygon
     class="st0"
     points="44.2 13.5 43.2 13.4 43.3 12.9 45.8 13.1 45.7 13.7 44.7 13.5 44.4 16.1 43.9 16.1 44.2 13.5"
     id="polygon9" />
  <polygon
     class="st0"
     points="47.6 13.6 49.9 14.2 49.7 14.7 48 14.2 47.8 15 49.3 15.4 49.1 15.9 47.6 15.4 47.4 16.2 49.1 16.8 49 17.2 46.7 16.5 47.6 13.6"
     id="polygon10" />
  <path
     class="st0"
     d="M50.9,16.4h0c.4-.8,1.4-1.1,2.2-.7.5.3.7.6.8,1l-.5.2c-.1-.3-.3-.6-.6-.8-.5-.3-1.1,0-1.4.5h0c-.3.5-.1,1.2.4,1.5.3.2.6.2,1,0v.5c-.3.1-.7.2-1.2-.1-.8-.4-1.1-1.4-.6-2.2"
     id="path10" />
  <polygon
     class="st0"
     points="55.8 17.4 56.2 17.8 55.4 18.8 56.5 19.8 57.4 18.8 57.8 19.1 55.8 21.5 55.4 21.2 56.2 20.1 55.1 19.2 54.2 20.2 53.8 19.8 55.8 17.4"
     id="polygon11" />
  <polygon
     class="st0"
     points="59.5 20.8 59.8 21.2 59.1 23.9 60.8 22.6 61.1 23 58.7 24.9 58.4 24.5 59.1 21.8 57.3 23.2 57 22.7 59.5 20.8"
     id="polygon12" />
  <rect
     class="st0"
     x="59.4"
     y="25.5"
     width="3.1"
     height=".5"
     transform="translate(-4.9 32.2) rotate(-28.5)"
     id="rect12" />
  <path
     class="st0"
     d="M61.5,30.4c-.3-.2-.5-.5-.6-.8-.3-.9.2-1.8,1-2.1h0c.8-.3,1.7.1,2.1,1,.3.9-.2,1.8-1,2.1h0c-.3.1-.7.1-1,0l-.2.4-.5-.2.2-.5ZM61.7,29.9l.3-.7.5.2-.3.7c.2,0,.4,0,.6,0h0c.6-.2.9-.8.7-1.4-.2-.6-.8-.8-1.4-.6h0c-.6.2-.9.8-.7,1.4,0,.2.2.3.3.5"
     id="path12" />
  <path
     class="st0"
     d="M63.1,32.3l1.8-.2v.5c0,0-1.7.2-1.7.2-.6,0-.9.4-.8.9,0,.5.4.7,1,.7l1.8-.2v.5c0,0-1.7.2-1.7.2-.9.1-1.5-.4-1.5-1.2,0-.8.3-1.4,1.2-1.5"
     id="path13" />
  <polygon
     class="st0"
     points="65.2 36.9 65 39.2 64.5 39.2 64.6 37.4 63.8 37.3 63.7 38.9 63.2 38.9 63.3 37.3 62.5 37.2 62.4 39 61.9 39 62.1 36.6 65.2 36.9"
     id="polygon13" />
  <rect
     class="st0"
     x="27.7"
     y="53.6"
     width="3.1"
     height=".5"
     transform="translate(-31.6 46.6) rotate(-54.7)"
     id="rect13" />
  <polygon
     class="st0"
     points="26.3 53.6 25.9 53.2 26.2 50.5 24.7 52 24.3 51.6 26.6 49.4 26.9 49.8 26.5 52.6 28.1 51 28.5 51.4 26.3 53.6"
     id="polygon14" />
  <path
     class="st0"
     d="M25.3,48.6h-.5c0-.5,0-.8-.2-1.1-.2-.3-.4-.4-.6-.2h0c-.2.1-.2.3,0,.9.2.6.3,1.1-.2,1.4h0c-.4.3-1,.1-1.3-.4-.3-.4-.3-.8-.3-1.2h.5c0,.4,0,.7.2.9.2.3.4.3.6.2h0c.2-.1.2-.3,0-.9-.2-.6-.2-1.1.2-1.3h0c.5-.3,1-.1,1.4.4.3.4.4.9.3,1.4"
     id="path14" />
  <polygon
     class="st0"
     points="21 45.4 21.4 46.4 20.9 46.6 19.9 44.2 20.4 44 20.8 44.9 23.2 43.9 23.4 44.4 21 45.4"
     id="polygon15" />
  <rect
     class="st0"
     x="19.3"
     y="41.6"
     width="3.1"
     height=".5"
     transform="translate(-10.2 6.9) rotate(-15.2)"
     id="rect15" />
  <polygon
     class="st0"
     points="19.2 39.2 19.4 40.2 18.9 40.3 18.5 37.8 19 37.7 19.2 38.7 21.8 38.4 21.8 38.9 19.2 39.2"
     id="polygon16" />
  <path
     class="st0"
     d="M20.3,36.1h-1.8c0-.1,0-.7,0-.7h1.8c.6.2.9-.1.9-.6,0-.5-.2-.8-.8-.8h-1.8c0-.1,0-.7,0-.7h1.8c.9.2,1.4.7,1.3,1.5,0,.8-.6,1.3-1.5,1.2"
     id="path16" />
  <polygon
     class="st0"
     points="19.7 30.7 19.4 31.7 18.9 31.5 19.6 29.1 20.1 29.2 19.8 30.2 22.4 30.8 22.2 31.4 19.7 30.7"
     id="polygon17" />
  <path
     class="st0"
     d="M34.9,55.1l1.2.3c1.3.4,1.7,1.2,1.4,2.1h0c-.3.9-1.1,1.4-2.4,1.1l-1.2-.3.9-3.1ZM35.5,57.7c.5.1.8,0,1-.4h0c.1-.5-.1-.7-.6-.9h-.2s-.4,1.3-.4,1.3h.2Z"
     id="path17" />
  <polygon
     class="st0"
     points="39.5 56.2 42.3 56.3 42.3 57.2 40.5 57.1 40.5 57.5 42.1 57.5 42.1 58.3 40.5 58.2 40.5 58.6 42.2 58.7 42.2 59.6 39.4 59.4 39.5 56.2"
     id="polygon18" />
  <path
     class="st0"
     d="M46.4,55.8l1.4-.4c.8-.3,1.5,0,1.7.7h0c.2.8-.2,1.3-1.1,1.6h-.3c0,.1.3,1,.3,1l-1,.3-1-3.1ZM48.2,56.9c.3,0,.4-.3.3-.5h0c0-.2-.3-.3-.5-.2h-.3c0,0,.2.8.2.8h.3Z"
     id="path18" />
  <path
     class="st0"
     d="M51.3,53.9l.9-.5,2.8,2.2-1,.6-.4-.3-1,.6v.5c0,0-.9.6-.9.6l-.4-3.5ZM53.1,55.3l-.7-.5v.8c.1,0,.7-.3.7-.3Z"
     id="path19" />
  <path
     class="st0"
     d="M54.5,51.9l1.2-1.1c.4-.4.8-.5,1.1-.5.3,0,.5.1.7.4h0c.3.4.4.8.2,1.2l1.3.3-.9.9-1.1-.3h0s-.2.2-.2.2l.6.7-.8.7-2.2-2.4ZM56.7,52c.2-.2.2-.4,0-.5h0c-.1-.2-.3-.1-.5,0l-.3.3.4.5.3-.3Z"
     id="path20" />
  <rect
     class="st0"
     x="58.9"
     y="47.4"
     width="1.1"
     height="3.3"
     transform="translate(-15.2 68) rotate(-53.8)"
     id="rect20" />
  <path
     class="st0"
     d="M61.8,47.6l-.4-.8c.4-.2.7-.5.8-.9,0-.2,0-.3,0-.3h0c0,0-.2,0-.4.3-.5.6-.9,1.1-1.6.8h0c-.6-.3-.8-.9-.4-1.7.3-.6.6-.9,1.1-1.1l.4.8c-.3.2-.6.5-.7.7,0,.1,0,.2,0,.3h0c0,0,.2,0,.4-.3.5-.7,1-1.1,1.6-.8h0c.6.3.7,1,.4,1.8-.3.6-.7,1.1-1.2,1.3"
     id="path21" />
  <rect
     class="st0"
     x="73.5"
     y="18.5"
     width="1.5"
     height="8.7"
     id="rect21" />
  <polygon
     class="st0"
     points="79.3 18.5 80.7 18.5 85.3 24.5 85.3 18.5 86.8 18.5 86.8 27.2 85.5 27.2 80.8 21 80.8 27.2 79.3 27.2 79.3 18.5"
     id="polygon21" />
  <path
     class="st0"
     d="M94.3,22.2c-1.7-.4-2.1-.7-2.1-1.4s.5-1,1.4-1,1.6.3,2.3.9l.8-1.1c-.9-.7-1.9-1.1-3.1-1.1s-3,1-3,2.5,1,2.2,2.9,2.6c1.6.4,2,.7,2,1.3s-.6,1.1-1.5,1.1-1.9-.4-2.7-1.1l-.9,1.1c1,.9,2.3,1.4,3.6,1.4s3.1-1,3.1-2.6-1-2.1-2.8-2.5"
     id="path22" />
  <polygon
     class="st0"
     points="102.6 19.9 99.8 19.9 99.8 18.5 106.9 18.5 106.9 19.9 104.1 19.9 104.1 27.2 102.6 27.2 102.6 19.9"
     id="polygon22" />
  <rect
     class="st0"
     x="110.2"
     y="18.5"
     width="1.5"
     height="8.7"
     id="rect22" />
  <polygon
     class="st0"
     points="117.8 19.9 115.1 19.9 115.1 18.5 122.1 18.5 122.1 19.9 119.4 19.9 119.4 27.2 117.8 27.2 117.8 19.9"
     id="polygon23" />
  <path
     class="st0"
     d="M125.2,23.5v-5h1.5v4.9c0,1.6.8,2.5,2.2,2.5s2.2-.8,2.2-2.4v-5h1.5v4.9c0,2.6-1.5,3.9-3.7,3.9s-3.7-1.3-3.7-3.8"
     id="path23" />
  <polygon
     class="st0"
     points="138.4 19.9 135.6 19.9 135.6 18.5 142.7 18.5 142.7 19.9 139.9 19.9 139.9 27.2 138.4 27.2 138.4 19.9"
     id="polygon24" />
  <path
     class="st0"
     d="M76.9,31.8h-3.4v8.7h1.5v-2.8h1.7c1.9,0,3.5-1,3.5-3s-1.3-2.9-3.3-2.9M76.7,36.3h-1.8v-3.1h1.8c1.1,0,1.9.5,1.9,1.6s-.7,1.6-1.9,1.6"
     id="path24" />
  <path
     class="st0"
     d="M87.5,31.7c-2.7,0-4.5,2.1-4.5,4.5s1.9,4.5,4.5,4.5,4.5-2.1,4.5-4.5-1.9-4.5-4.5-4.5M87.5,39.2c-1.7,0-2.9-1.4-2.9-3.1s1.2-3.1,2.9-3.1,2.9,1.4,2.9,3.1-1.2,3.1-2.9,3.1"
     id="path25" />
  <polygon
     class="st0"
     points="95.4 31.8 96.9 31.8 96.9 39.1 101.5 39.1 101.5 40.5 95.4 40.5 95.4 31.8"
     id="polygon25" />
  <polygon
     class="st0"
     points="105.6 37.1 102.1 31.8 103.9 31.8 106.3 35.7 108.8 31.8 110.5 31.8 107.1 37 107.1 40.5 105.6 40.5 105.6 37.1"
     id="polygon26" />
  <polygon
     class="st0"
     points="115.7 33.2 112.9 33.2 112.9 31.8 119.9 31.8 119.9 33.2 117.2 33.2 117.2 40.5 115.7 40.5 115.7 33.2"
     id="polygon27" />
  <polygon
     class="st0"
     points="123.3 31.8 129.7 31.8 129.7 33.2 124.8 33.2 124.8 35.4 129.1 35.4 129.1 36.8 124.8 36.8 124.8 39.1 129.8 39.1 129.8 40.5 123.3 40.5 123.3 31.8"
     id="polygon28" />
  <path
     class="st0"
     d="M140,38.1c-.7.7-1.4,1.1-2.5,1.1-1.7,0-2.9-1.4-2.9-3.1s1.2-3.1,2.9-3.1,1.7.4,2.4,1.1l1-1.1c-.8-.8-1.8-1.3-3.4-1.3-2.6,0-4.5,2-4.5,4.5s1.9,4.5,4.4,4.5,2.6-.6,3.5-1.5l-1-1Z"
     id="path28" />
  <polygon
     class="st0"
     points="144.3 31.8 145.8 31.8 145.8 35.4 150 35.4 150 31.8 151.5 31.8 151.5 40.5 150 40.5 150 36.8 145.8 36.8 145.8 40.5 144.3 40.5 144.3 31.8"
     id="polygon29" />
  <polygon
     class="st0"
     points="155.8 31.8 157.2 31.8 161.9 37.8 161.9 31.8 163.4 31.8 163.4 40.5 162.1 40.5 157.3 34.3 157.3 40.5 155.8 40.5 155.8 31.8"
     id="polygon30" />
  <rect
     class="st0"
     x="167.7"
     y="31.8"
     width="1.5"
     height="8.7"
     id="rect30" />
  <path
     class="st0"
     d="M180.9,38.8c.6-.8.9-1.7.9-2.7,0-2.4-1.9-4.5-4.5-4.5s-4.5,2.1-4.5,4.5,1.9,4.5,4.5,4.5,1.9-.3,2.6-.8l1,.9,1-1.1-1-.8ZM179.7,37.8l-1.5-1.4-1,1.1,1.5,1.3c-.4.3-.9.4-1.5.4-1.7,0-2.9-1.4-2.9-3.1s1.2-3.1,2.9-3.1,2.9,1.4,2.9,3.1-.1,1.2-.4,1.6"
     id="path30" />
  <path
     class="st0"
     d="M185.2,36.8v-5h1.5v4.9c0,1.6.8,2.5,2.2,2.5s2.2-.8,2.2-2.4v-5h1.5v4.9c0,2.6-1.5,3.9-3.7,3.9s-3.7-1.3-3.7-3.8"
     id="path31" />
  <polygon
     class="st0"
     points="196.3 31.8 202.8 31.8 202.8 33.2 197.9 33.2 197.9 35.4 202.2 35.4 202.2 36.8 197.9 36.8 197.9 39.1 202.8 39.1 202.8 40.5 196.3 40.5 196.3 31.8"
     id="polygon31" />
  <path
     class="st0"
     d="M76.8,45.1h-3.3v8.7h3.3c3.1,0,4.9-1.9,4.9-4.4s-1.8-4.3-4.9-4.3M76.8,51.7h-1v-4.4h1c1.4,0,2.4.8,2.4,2.2s-1,2.2-2.4,2.2"
     id="path32" />
  <polygon
     class="st0"
     points="85.6 45.1 92.6 45.1 92.6 47.2 88 47.2 88 48.5 92.2 48.5 92.2 50.4 88 50.4 88 51.7 92.7 51.7 92.7 53.8 85.6 53.8 85.6 45.1"
     id="polygon32" />
  <path
     class="st0"
     d="M106.6,45.1h-3.7v8.7h2.4v-2.5h1.2c2.2,0,3.7-1.1,3.7-3.1s-1.4-3.1-3.6-3.1M106.5,49.4h-1.1v-2.3h1.1c.9,0,1.4.4,1.4,1.2s-.5,1.1-1.4,1.1"
     id="path33" />
  <path
     class="st0"
     d="M115.9,45.1h2.3l3.7,8.7h-2.6l-.6-1.5h-3.3l-.6,1.5h-2.5l3.7-8.7ZM118,50.4l-1-2.5-1,2.5h1.9Z"
     id="path34" />
  <path
     class="st0"
     d="M131.1,50.8c1.1-.5,1.8-1.3,1.8-2.7,0-1.9-1.3-3-3.6-3h-4.1v8.7h2.4v-2.6h1.1l1.7,2.6h2.8l-2.1-3ZM129.2,49.3h-1.6v-2.1h1.6c.8,0,1.3.4,1.3,1s-.5,1-1.3,1"
     id="path35" />
  <rect
     class="st0"
     x="137.2"
     y="45.1"
     width="2.4"
     height="8.7"
     id="rect35" />
  <path
     class="st0"
     d="M147.6,48.4c-1.2-.3-1.5-.5-1.5-.9s.3-.6.9-.6,1.6.3,2.4.9l1.2-1.7c-.9-.8-2.1-1.2-3.6-1.2s-3.4,1.2-3.4,2.8,1.4,2.3,3.3,2.7c1.2.3,1.5.5,1.5.8s-.3.6-1,.6c-1,0-2-.4-2.8-1l-1.3,1.6c1.1,1,2.5,1.4,4.1,1.4s3.5-1.1,3.5-2.8-1.2-2.3-3.2-2.7"
     id="path36" />
  <line
     class="st3"
     x1="212.9"
     y1="66.4"
     x2="212.9"
     y2="4.8"
     id="line36" />
  <path
     class="st0"
     d="M254.8,23.7c-1.8,2.2-4.2,5-6.3,7.6-8.2-10.2-15.9-18.3-20.9-22.1,2.6,6.1,9.2,15.4,17.7,26.3-4.4,5.7-13.2,17.1-17.7,26.8,6.1-4.8,14.3-14.3,21-22.7,8.2,10.2,16,18.9,21.1,22.7-2.6-6-9.3-16-17.8-26.8,3.3-4.3,4.5-5.8,7.8-10.4,3.5-5,9.3-12.2,12.4-10.7-4.6-2.6-11.2,2.4-17.1,9.4"
     id="path37" />
  <path
     class="st0"
     d="M238.3,32.6c0,0-.2-.1-.4-.1s-.4,0-.6.2c-.2.1-.5.3-.7.5-.2.2-.5.5-.7.8-.2.3-.5.6-.7,1s-.4.7-.6,1.1c-.2.4-.4.8-.5,1.2-.1.4-.3.8-.4,1.2,0,.3-.1.6-.1.8-.2.2-.4.4-.6.6-.2.2-.5.4-.6.5-.2.1-.3.2-.5.3v.3c.2,0,.4-.2.6-.4.2-.1.4-.3.6-.5.1-.1.3-.2.4-.4,0,.2,0,.4.1.6,0,.2.2.4.3.5.1.1.2.2.4.3.2,0,.3,0,.5,0s.4,0,.6-.2c.2-.1.4-.2.5-.4.1-.1.3-.3.4-.4l-.2-.2s0,0,0,.1c-.1.1-.3.3-.4.4-.1.1-.3.2-.4.3-.1,0-.3.1-.4.1-.2,0-.4,0-.5-.3-.1-.2-.2-.4-.2-.8,0-.1,0-.3,0-.4,0-.1,0-.3,0-.4.1-.1.2-.2.3-.3,0,0,0,0,.1-.1,0,0,.2-.2.3-.3.1-.1.2-.2.4-.4.2-.2.3-.4.5-.6.2-.2.5-.6.8-.9.1-.2.3-.4.4-.6.1-.2.3-.4.4-.6.1-.2.3-.4.4-.7.1-.2.2-.4.3-.6,0-.2.2-.4.2-.6,0-.2,0-.3,0-.5,0-.2,0-.3-.1-.4M238,33.6c0,.2-.2.5-.4.8-.2.3-.4.6-.6,1-.2.3-.5.7-.8,1-.3.4-.6.7-.9,1.1-.3.4-.7.7-1,1.1h0s0,0,0,0c0-.4.2-.9.4-1.3.2-.5.4-.9.6-1.3.2-.4.5-.8.7-1.2.3-.4.5-.7.7-1,.2-.3.5-.5.7-.7.2-.2.4-.2.5-.2s0,0,.1,0c0,0,0,.1,0,.1,0,.2,0,.4-.1.6M240.6,33.6c0,.1,0,.3,0,.4,0,.1-.2.3-.3.4-.1.1-.2.2-.4.3-.1,0-.3.2-.4.2v-.2c0,0,.2-.2.4-.3.2-.1.3-.2.3-.3-.1,0-.2,0-.3-.2,0,0,0-.2,0-.3s0-.2.1-.3c0,0,.2-.1.3-.1s.2,0,.3.1c0,0,.1.2.1.3"
     id="path38" />
  <path
     class="st0"
     d="M241.9,58.7h1.7v.3h-1.4v1.1h1.4v.3h-1.4v1.1h1.4v.3h-1.7v-3.1ZM243.2,57.8v.2c.1,0-.9.5-.9.5v-.2c-.1,0,.9-.6.9-.6ZM247.1,61c-.2.5-.7.9-1.4.9s-1.6-.7-1.6-1.6.7-1.6,1.6-1.6,1.3.5,1.4.9h-.4c-.1-.2-.5-.6-1.1-.6s-1.3.6-1.3,1.3.6,1.3,1.3,1.3,1-.5,1.1-.6h.4ZM247.5,60.3c0-1,.7-1.6,1.6-1.6s1.6.7,1.6,1.6-.7,1.6-1.6,1.6-1.6-.7-1.6-1.6h0ZM247.8,60.3c0,.7.6,1.3,1.3,1.3s1.3-.6,1.3-1.3-.5-1.3-1.3-1.3-1.3.6-1.3,1.3h0ZM251.3,58.7h.4v2.8h1.3v.3h-1.7v-3.1ZM253.4,58.7h1.7v.3h-1.4v1.1h1.4v.3h-1.4v1.1h1.4v.3h-1.7v-3.1Z"
     id="path39" />
  <path
     class="st0"
     d="M231.3,63c.5,0,.7,0,.9.2.2.2.4.5.4.8s-.1.6-.3.8c-.2.2-.4.2-.9.2h-.4v1.1h-.6v-3.1h.9ZM231,64.5h.4c.1,0,.3,0,.4,0,.1,0,.2-.2.2-.4s0-.3-.2-.4c-.1,0-.3,0-.4,0h-.3v.9ZM232.9,64.6c0-1,.8-1.6,1.6-1.6s1.6.7,1.6,1.6-.7,1.6-1.6,1.6-1.6-.8-1.6-1.6h0ZM233.5,64.6c0,.6.4,1.1,1,1.1s1-.5,1-1.1-.4-1.1-1-1.1-1,.5-1,1.1h0ZM236.8,63h.6v2.6h1v.6h-1.6v-3.1ZM239.4,65l-1-2h.7l.6,1.4.6-1.4h.7l-.9,2v1.1h-.6v-1.1ZM242,63.6h-.7v-.6h2v.6h-.7v2.6h-.6v-2.6ZM244,63h1.7v.6h-1.1v.7h1.1v.6h-1.1v.8h1.1v.6h-1.7v-3.1ZM249.4,65.1c-.2.6-.8,1.1-1.5,1.1s-1.6-.8-1.6-1.6.6-1.6,1.6-1.6c.9,0,1.4.7,1.5,1.1h-.7c0-.2-.4-.6-.9-.6-.6,0-1,.5-1,1.1s.4,1.1,1,1.1.8-.4.9-.6h.7ZM249.9,66.1v-3.1h.6v1.2h1.2v-1.2h.6v3.1h-.6v-1.3h-1.2v1.3h-.6ZM255.2,65.2v-2.2s.6,0,.6,0v3.1h-.6l-1.4-2.2v2.2s-.6,0-.6,0v-3.1h.6l1.4,2.2ZM256.7,63h.6v3.1h-.6v-3.1ZM262.6,63v1.9c0,.2,0,.3,0,.5,0,.1.2.2.4.2s.4,0,.4-.2c0-.2,0-.3,0-.5v-1.9h.6v1.9c0,.5,0,.7-.3,1-.2.2-.5.3-.8.3s-.6,0-.8-.3c-.3-.3-.3-.5-.3-1v-1.9h.6ZM264.9,63h1.7v.6h-1.1v.7h1.1v.6h-1.1v.8h1.1v.6h-1.7v-3.1ZM261.2,65.7s-.2,0-.3,0c.2-.3.3-.6.3-1,0-.9-.7-1.6-1.6-1.6s-1.6.6-1.6,1.6h0c0,.6.3,1.1.9,1.4h0s0,0,.1,0c.2,0,.4.1.7.1s.5,0,.8-.2c0,0,0,0,0,0,.1,0,.4.3.7.3h0v-.5h0ZM258.6,64.6h0c0-.6.4-1.1,1-1.1s1,.5,1,1.1,0,.4-.2.6l-.3-.3-.4.4.3.3c-.1,0-.3.1-.4.1-.6,0-1-.5-1-1.1"
     id="path40" />
  <path
     class="st1"
     d="M250.9,14s.3-.3.3-.4c0,0,.2-.2.3-.2,0,0,0,.1,0,.1,0,0-.2.3-.2.3,0,0-.1.1-.2.1,0,0,0,0,0,0,0,0,0,0-.1,0,0,0,0,0,0,0,0,0,0,0,0,0M250.5,15.3s0,0,0,0c0,0,0,0,0,0s.6-.3.7-.4c0,0,0,0,0,0,0,0-.4.2-.4.2,0,0-.3.1-.3,0,0,0,0-.1,0-.2,0,0,.5-.1.8-.3,0,0,0,0,0,0,0,.1-.5.6-1.1.8M249.9,15.4c0,0-.2,0-.2,0,0,0,.6-.2.6-.3,0,0-.5.2-.5.1,0,0,0,0,0,0,.2,0,.7-.2.8-.2,0,0-.5.5-.7.6M250.5,13.2c0,0,0,.1-.1.2,0,0,0,0,0,0,0,0,0,0-.1,0,0,0,0,0,0,0,0,0,0,0,0,0,0,0,0,0,0,0,0,0,0-.1,0-.2,0,0,.4,0,.4,0M250.5,14.4s0,0,0,0c0,0,0,0,0-.2,0,0,0,0,0,0,0,0,0,0,0,.1M250.4,13.7s-.3,0-.3,0c0,0,0-.3,0-.2,0,0,.3,0,.3,0,0,0,0,.2,0,.2M250.4,13.8s0,.2,0,.2c0,0-.2,0-.3,0-.1,0,0-.1,0-.2,0,0,.3,0,.4,0M250.2,14.2c-.1,0,0-.1-.1-.2,0,0,.3,0,.3,0,0,0,0,.3,0,.2,0,0-.2,0-.2,0M250.4,14.3c0,0,0,.1,0,.2,0,0-.2,0-.2,0,0,0,0,0,0,0,0,0,0,0,0,0,0,0,0,0,0,0,0,0,.1,0,.2,0M249.9,14.5s0,0,0,0c0,0,0,0,0,0,0,0,0,0,0,0,0,0-.1,0-.1,0,0,0,0,0,0,0,0,0,.1,0,.2,0M249.9,14.6s0,0,0,0c0,0-.1,0-.1,0,0,0-.3,0-.3,0,0,0,0,0,0,0,0,0,.2,0,.3,0M251.4,13.9s0,0,0,0c0,0,0,0,0-.1,0,0,0-.1,0-.2,0,0,.4-.4.5-.4,0,0-.3.3-.4.3,0,0,.1-.3.2-.3,0,0,0,0,0,0,0,0,0,0,0,0,.1,0,.1-.3.2-.3s0,0,0,0c0,0,0-.1,0-.2,0,0,0,0,.1,0,0,0,0,.1,0,.2,0,.1,0,.2-.1.4,0,0-.7.7-.7.7M250.8,14.3h0s.1,0,.1,0c0,0,0,0,0,0,0,0-.2.4-.3.5-.2.1-.7.3-.7.3,0,0-.1,0-.1,0,0,0,0,0,0,0,0,0,.5-.2.5-.2,0,0-.4,0-.5,0,0,0,0-.1,0-.1,0,0,.3,0,.3,0,0,0,.3,0,.3,0,0,0,0-.2,0-.2M250.6,14.5s0,0,0-.1c0,0,0,0,0-.1,0,0,0,0,0,0,0,0,0,.1-.1.2,0,0,0,0,0,0M250.7,13.5c0,0-.1.2-.2.2,0,0,0,0,0,0,0,0,0,0,0,0,0,0,0-.1.1-.1,0,0-.1.2-.2.3,0,0,0,0,0,0,0,0,.1-.2.2-.2,0,0,0,0,0,0,0,0-.2.3-.2.3,0,0,0,0,0,0,0,0,.1-.2.1-.2,0,0,0,0,0,0,0,0-.1.2-.1.3,0,0,0,0,0,0,0,0,0-.1,0-.2,0,0,0-.3,0-.3,0,0,0,0,0-.1,0,0,.1-.1.2-.1,0,0,0,0,0,0M250.7,13.4s-.2.2-.2.2c0,0,0-.1,0-.1,0,0,0,0,.1-.1,0,0,0,0,0,0M250.6,13.3s0,0,0,.1c0,0,0,0,0,0,0,0,0,0,0-.1M250.8,11.6s.3.2.5.4c0,0,0,0,0,0,0,0,0,0,0,0-.1-.1-.4-.3-.4-.3,0,0,0,0,0,0M251.2,12.1c.1,0,0,.2,0,.2,0,0,0,0,0,0,0,0,0,0-.1,0,0,0,0,.1.2.2,0,0-.2.2-.2.3,0,0,0,0,0,0s-.5-.3-.5-.3c0,0,0,0,0,0,0,0,0-.2,0-.2,0,0,.1-.2.2-.2,0,0,.1,0,.1,0,0,0,.4.3.4.3M250.2,12.2s0,0,0,0c0,0,.1,0,.2.1,0,0,.3.2.4.3,0,0,0,0,0,.1,0,0-.2-.1-.2-.1,0,0,0,0,0,0,0,0,0,0,0,0,0,0,0,0,0,0-.2-.1-.3-.2-.4-.3,0,0-.1,0-.1-.1M250.8,12.8s0,0,0,0c0,0,0,0,0,0,0,0,0,0,0,0,0,0,0,0,0,0,0,0,0,0,.1,0,0,.1-.1.2-.2.3,0,0-.6-.2-.6-.2,0,0,0,0,0,0,0,0,.1-.2.1-.2,0,0,.1-.3.2-.2,0,0,0,0,0,0,0,0,.4.3.5.3M248.7,13.3s.2,0,.2,0c0,0,0,0,0,0s-.1,0-.2,0h0ZM248,13.3s.2,0,.2,0c0,0,0,0,0,0s-.1,0-.2,0h0ZM248.8,13.5s.1,0,.1,0c0,0-.1,0-.1,0s0,0,0,0c0,0,0,0,0,0M248.8,13.6h0s0,0-.1,0c0,0,0,0,.1,0M249.4,12.6c0,0-.2-.1-.4-.2,0,0-.1-.1-.2-.2,0,0-.1-.2-.1-.2,0,0,0,0,0,0,0,0,0,0,0,.1.1.2.3.3.5.5,0,0,.1,0,.2,0,0,0,0,0,0,0,0,0-.1,0-.2,0M249.2,12.4c0,0,.2,0,.3,0,0,0,0,0,0,0,0,0,0,0-.1,0,0,0,0,0,0,0,0,0,0,0,0,0M249.1,11.8c0,0-.2,0-.2,0,0,0,0,0,0,0,0,0,0-.2-.3-.2-.1,0-.2,0-.3.1,0,0-.2,0-.4,0-.2,0-.3-.2-.4-.2-.1-.1,0,0-.1-.1,0,0,.3-.7,1-.7s.3,0,.4,0c0,0-.2,0-.2,0h0s.3,0,.4,0c0,0,0,0,0,0,0,0-.2,0-.2,0,0,0,0,0,0,0,.1,0,.4,0,.4.1,0,0,0,0,0,0,0,0,0,0,0,0,0,0,.2,0,.2,0,0,0-.1,0-.1,0,0,0,.1,0,.2,0,0,0,0,0,0,0,0,0-.2,0-.2,0,0,0,0,0,0,0,0,0,.3,0,.3,0,0,0-.3,0-.3,0,0,0,0,0,0,0,0,0,.2,0,.3,0,0,0,0,0,0,0,0,0,0,0,0,0,0,0-.2,0-.2,0,0,0,0,0,0,0,0,0,.3,0,.3,0,0,0,0,0,0,0,0,0-.2,0-.3,0,0,0,0,0,0,0,0,0,.3,0,.3,0,0,0,0,0,0,0,0,0-.1,0-.2,0,0,0,0,0,0,0,0,0,.2,0,.3,0,0,0,0,0,0,0,0,0-.2,0-.3,0h0c0,0,.3,0,.3,0s0,0,0,0c0,0-.3,0-.3,0,0,0,0,0,0,0,0,0,.3,0,.3,0,0,0,0,0,0,0,0,0-.1,0-.2,0,0,0,0,0,0,0,0,0,.2,0,.2,0h0c0,0-.1,0-.2,0,0,0,0,0,0,0,0,0,.1,0,.2,0,0,0,0,0,0,0,0,0-.2,0-.3,0h0c0,0,.2,0,.3,0,0,0,0,0,0,0,0,0-.3,0-.3,0,0,0-.2-.1-.2-.2,0,0,0,0,0,0h0s0,0,0,0c0,0,0,0,0,0,0,0,0,0,.1,0,0,0-.1,0-.2,0,0,0,0,0,0,0,0,0,.1,0,.2,0,0,0,0,0,0,0,0,0-.1,0-.2,0,0,0,0,0,0,0,0,0,.1,0,.2,0h0ZM247.3,11.3s0,0,0,0c0,0,0,0,0,0,.1.2.4.3.4.3,0,0,0,0,0,0,0,0,0,0,0,0,0,0,.1,0,.2,0,0,0,.2,0,.3,0h0s-.1,0-.1,0h0c0,0,.2,0,.3,0,0,0,0,0,0,0,0,0-.2.1-.5.1-.2,0-.3,0-.5,0-.2,0,0-.5,0-.5M247.2,11.8c.2,0,.4,0,.6,0,.1,0,.3,0,.5,0,0,0,0,0,0,0,0,0-.2,0-.2,0,0,0,0,0,0,0,0,0,.1,0,.2,0,0,0,0,0,0,0,0,0-.2,0-.3.1-.1,0-.6.1-.7.1-.1,0-.2,0-.4,0,0,0,.2-.4.2-.5M247.2,12.5c0,0-.2,0-.3,0,0,0,0,0,0,0,.4,0,.7,0,1-.1.1,0,.3-.1.4-.2,0,0,0,0,0,0,0,0-.2.1-.2.2-.2.1-.7.2-1,.2M248.1,13.5s.1,0,.1,0c0,0,0,0-.1,0h0ZM246.3,15.1s-.2-.2-.1-.2c0,0,0,0,0,0,0,0,.1,0,.2.1.1,0,.4,0,.4,0,0,0,0,0,0,0,0,0,0,0-.1,0,0,0-.4-.2-.4-.2,0,0,.2.1.3.2,0,0,.3.1.3.1,0,0,0,0,0,0,0,0,0,0-.1,0-.3,0-.6-.4-.6-.4M245.2,14.5s0,0,0,0c0,0,.1,0,.1,0,0,0,.7.2.7.3,0,0,0,0,0,.1,0,0-.7-.3-.7-.3,0,0,.1,0,.2.1,0,0,.6.3.6.3,0,0,0,0,0,0,0,0,0,0,0,0-.2,0-1.1-.6-1.1-.8M245.9,14.1c0,0-.1,0-.1,0,0,0,0,0-.1-.1,0,0-.2-.3-.2-.4,0,0,0,0,0-.1,0,0,.2.1.3.2,0,0,.2.2.2.3,0,0,0,.1,0,.2M246,14.5s-.1-.1-.2-.2c0,0,0-.1,0-.1,0,0,0,0,0,0,0,0,.2.1.2.1,0,0,0,0,0,.1,0,0,0,0,0,.1M246.7,13.1c0,0,0,.2,0,.2,0,0-.3,0-.4,0s0-.1,0-.2c0,0,.3-.1.4,0M246.7,13.6c0,0-.3,0-.4,0,0,0,0-.1,0-.2s.3,0,.4,0c0,0,0,.1,0,.2M246.9,13c0,0,0,.2,0,.2.1.5,0,1.1,0,1.1,0,0-.1,0-.1,0,0,0,.2-.5,0-1.1,0,0,0-.1,0-.1M249.9,13.2c-.2.6,0,1.1,0,1.1,0,0,0,0-.1,0,0,0-.2-.6,0-1.1,0,0,0-.2,0-.2,0,0,0,.1,0,.1M247,14.4s0,0,0,0c0,0,0,0,0,0,0,0-.2,0-.2,0,0,0,0,0,0,0,0,0,0,0,.1,0M249.9,14.4s0,0,0,0c0,0-.2,0-.2,0,0,0,0,0,0,0,0,0,0,0,0,0,0,0,0,0,.1,0M246.7,14c0,0-.3,0-.3,0,0,0,0-.2,0-.2s.3,0,.3,0c0,0,0,.2,0,.2M246.4,14c0,0,.3,0,.3,0,0,0,0,.2,0,.2,0,0-.2,0-.2,0,0,0,0-.2,0-.2M246.3,14.5s0-.2.1-.2c0,0,.2,0,.2,0,0,0,0,.2,0,.2s-.3,0-.3,0M246.7,14.6s0,.1,0,.1c0,0-.5,0-.5,0,0,0,.1,0,.2.1,0,0,.3.1.3.1,0,0,0,0,0,0,0,0,0,0-.1,0,0,0-.3,0-.4-.1,0,0-.3-.2-.3-.2,0,0,.6,0,.7,0M246.9,13.4c0,0,0,0,0,0,0,0,.1,0,.1,0,0,0,0,0,0,0,0,0,0,0,0,0M246.8,13.3s0-.1,0,0c0,0,0,0,0,0,0,0,0,0,0,0M246.8,13.1s0,0,0,0c0,0,0,0,0,0M249.9,13.4s0,0,0,0c0,0,0,0,.1,0,0,0,0,0,0,0,0,0,0,0,0,0M249.9,13.3s0,0,0,0c.1,0,0,0,0,0,0,0,0,0,0,0M249.9,13.1s0,0,0,0c0,0-.1,0,0,0M245.5,12c.2-.1.3-.2.5-.4,0,0,0,0,0,0,0,0,0,0,0,0,0,0-.2.2-.4.3,0,0,0,0,0,0M245.9,12.6s0,0,0,0c0,0,.1-.1.2-.2,0,0,0,0-.1,0,0,0-.1,0-.2.1,0,0,0,0,0,0,0,0,0,0,0,0,0,0,.1-.1.2-.2,0,0-.2.2-.3.2,0,0,0,0,0,0,0,0,.1,0,.1-.1,0,0-.1,0-.1,0,0,0,0,0,0,0,0,0,.1-.1.1-.2,0,0-.1.1-.2.1,0,0,0-.1,0-.2,0,0,.5-.3.5-.4,0,0,0,0,0,0,0,0,0,0,0,.2,0,0,0,.2,0,.2,0,0-.5.4-.5.4,0,0,0,0,0,0M246,12.8s0,0,0,0c0,0,0,0,.1-.1,0,0-.1,0-.2,0,0,0,0,0,0,0,0,0,0,0,0,0,0,0,0,0,.1-.1.1,0,.1-.1.3-.2,0,0,.1-.1.2-.2,0,0,0,0,0,0,0,0,0,0-.1.1,0,0-.1,0-.2.1,0,0-.1.1-.2.2,0,0,0,0,0,0M246,12.8c.2-.1.4-.3.5-.4,0,0,.2.3.3.4,0,0,0,0,0,.1,0,0-.6.2-.6.2,0,0-.2-.2-.2-.3M246.2,13.3s.1,0,.1,0c0,0,0,.4,0,.5,0,0,0,.2,0,.3,0,0,0,.2,0,.2,0,0,0,.2,0,.3,0,0,0,.1-.1.1,0,0,0,0,0-.1,0,0,0-.2,0-.3s0-.4,0-.5c0-.2.1-.4.2-.4M243.6,12c0,0,1.6.7,2.4,1.4,0,0,0,0,0,0,0,0,0,0,0,0,0,0-.1-.1-.2-.2,0,0,.2.3.2.3,0,0,0,0,0,0,0,0,0,0,0,0,0,0-.1-.1-.2-.2,0,0,.1.2.2.2,0,0,0,0,0,.1,0,0,0,0,0,0,0,0-.1-.1-.1-.1,0,0,.2.2.2.3,0,0,0,0,0,0,0-.1-.7-.7-.9-.9-.2-.2-1.3-.8-1.3-.9,0,0,0,0,0,0M246.5,15.8s0,0,0,0c0,0-.1,0-.2,0,0,0-.1,0-.1,0,0,0,0,0,0,0,0,0-.1,0-.2,0,0,0,0,0-.1,0,0,0,0,0,0,0,0,0-.2,0-.2-.1,0,0,0,0,0,0,0,0,0,0,0,0,0,0-.2-.3-.2-.3,0,0,0-.1,0-.1,0,0,.5.2.9.4,0,0,0,0,0,0,0,0,0,0,0,0,0,0,0,0,0,0,0,0-.4-.1-.4-.2,0,0,0,0,.1,0,0,0,.2,0,.3.1,0,0,.2,0,.3,0,0,0,.3,0,.3.1,0,0-.2,0-.2,0M246.7,15.5c0,0,.3.2.3.2s0,0-.1,0c0,0-.2,0-.2-.1-.3-.2-.4-.5-.5-.5,0,0,0,0,0,0,0,0,.4.5.9.5s.1.1,0,.1c0,0-.4-.1-.5-.1M248,16s-.6,0-.8,0c0,0,0-.2,0-.2,0,0,.6,0,.9,0h0s0,.3,0,.3c0,0-.1,0-.1,0M246.9,16.8c0,0,.1-.2.2-.2s0,0,0,.1c0,0,0,0,0,0,0,0,0,.2-.1.2,0,0,0,0,0-.1M247.4,16.8s0,0,0,0c0,0,.2,0,.2,0,0,0,0,0,0,0,0,0,0,0,0,0,0,0-.2,0-.2,0M247.7,16.7s0,0-.1,0c0,0-.1,0-.1,0,0,0,0,0,0,0,0,0,.1,0,.2,0,0,0,0,0,0,0M247.7,16.8s0,0,0,0c0,0,0,0,0,0,0,0,0,0,0,0,0,0,0,.1,0,.2,0,0,0,0,0,0,0,0,0,0,0,0,0,0,0-.2,0-.2,0,0,0,0,0,0M247.3,16.8c0,0,0,.1,0,.2,0,0,0,0,0,0,0,0,0,0,0-.1,0,0,0-.1,0-.2,0,0,0,0,0,0,0,0,0,0,0,.1M247.2,17s0,0,0,0c0,0-.1,0-.1,0,0,0,.2,0,.2,0M247,16.9c0,0,.1,0,.1,0,0,0,0,0,0,0,0,0,0,0,0,0,0,0,0,0,0,0,0,0,0,0,0,0M247.3,16.7s0,0,0,0c0,0,0,0,0,0,0,0,.2,0,0,0M247.2,16.8s0,0,0,0c0,0,0,0,0,0,0,0,0,0,0,0,0,0,.1,0,.1,0M244.8,21.2s-.1-.2-.2-.2c0,0-.2-.3-.2-.3,0,0-.3-.5-.3-.9,0-.3,0-.6,0-.7,0-.8,0-.7.1-1,0,0,.2.3.3.4.2.3.8.8.9.9,0,0,0,0,0,0,0,0-.1.3-.1.4,0,0,0,0,0,0,0,0,0,0,0-.1-.1-.1-.3-.4-.4-.4,0,0-.3-.4-.3-.5,0,0,0-.2-.1-.2,0,0,0,0,0,.4,0,.4,0,1.2.8,2.2,0,0,0,0,0,0,0,0,0,0-.1,0,0,0,0,0,0,0,0,0,0,0,0,0M248.4,23.2s0-1.5,0-1.5c0,0,0,0,0,0,0,0-.5,0-.6,0-.1,0-.5,0-.7-.2-.7-.2-1.2-.6-1.2-.7-.6-.5-.9-1-1.1-1.4-.2-.4-.2-.5-.2-.5,0,0,0,0,0,0,0,0,0,0,0,0,0,0,0,.2,0,.3,0,.2.2.4.2.5,0,0,.1.2.1.2,0,0-.2-.3-.2-.4,0,0-.1-.3-.2-.3,0,0,0,.1,0,.3,0,.1.2.5.2.6,0,0,.1.2.2.3,0,0,0,0,0,.1,0,0-.3-.3-.3-.4,0,0,0,0,0,.2.1.3.4.5.5.6,0,0,.2.2.2.2,0,0,.2.2.2.2,0,0-.1,0-.2-.1,0,0-.3-.2-.3-.3,0,0,0,0,0,0,.3.3.7.7,1.4,1,1.1.5,1.7.6,2,1.4h0ZM248.4,20.4c0,0,.2,0,.3,0,0,0,0,0,0,0-.1,0-.2,0-.3,0h0c0,0,.3,0,.3-.1s-.2,0-.3,0h0c0,0,.3,0,.3-.1s-.2,0-.3,0h0c0,0,.3-.1.3-.1s-.2,0-.3,0h0c0-.1.3,0,.3-.1s-.2,0-.3,0h0c0,0,.3,0,.3-.1s-.2,0-.3,0c0,0,0,0,0,0,0,0,.3,0,.3,0s-.2,0-.3,0h0c0,0,.3,0,.3-.1s-.2,0-.3,0h0c.1,0,.3,0,.3-.1s-.2,0-.3,0h0c0,0,.3,0,.3-.1s-.2,0-.3,0h0c0,0,.3,0,.3-.1s-.2,0-.3,0h0c.1,0,.2,0,.3-.1,0,0,0,0,0,0,0,0-.3,0-.3,0h0c.2,0,.6-.1.6-.1,0,0,.1,0,.2,0,0,0-.3.1-.3.1,0,0,.2,0,.3,0,0,0,0,0,0,0,0,0-.3,0-.3,0,0,0,.2,0,.3,0,0,0,0,0,0,0,0,0-.2,0-.3,0,0,0,.2,0,.3,0,0,0,0,0,0,0,0,0-.3,0-.3,0,0,0,.2,0,.3,0,0,0,0,0,0,0,0,0-.1,0-.2,0,0,0,0,0,0,0,0,0,.2,0,.2,0,0,0,0,0,0,0,0,0-.2,0-.2,0,0,0,0,0,0,0,0,0,.1,0,.1,0,0,0,0,0,0,0,0,0-.3,0-.3,0,0,0,0,0,0,0,0,0,.1,0,.2,0,0,0,0,0,0,0,0,0-.2,0-.2,0,0,0,0,0,0,0,0,0,.2,0,.2,0,0,0-.2,0-.3,0,0,0,0,0,0,0,0,0,.1,0,.2,0,0,0,0,0,0,0,0,0-.3,0-.3,0,0,0,0,0,0,0,0,0,.2,0,.3,0,0,0,0,0,0,0,0,0,0,0,0,0,0,0-.2,0-.2,0,0,0,0,0,0,0,0,0,0,0,0,0,0,0,.3,0,.3,0,0,0-.2,0-.3,0,0,0,0,0,0,0,0,0,.3,0,.4,0,0,0,0,0,0,0,0,0,0,0-.1,0-.1,0-.2,0-.3,0,0,0,0,0,0,0,.1,0,.3,0,.4,0,0,0,.1,0,.2,0,0,0-.4,0-.5.1,0,0,0,0,0,0,.1,0,.2,0,.4,0,0,0,0,0,.1,0,0,0,.2,0,.1,0,0,0-.5.1-.6.1,0,0,0,0,0,0,0,0,.7-.1.8-.2,0,0,.1,0,.2,0,0,0-.6.2-.7.2,0,0,0,0,0,0,.3,0,.7-.2.8-.2.2-.1.5-.3.6-.4.6-.5.9-.9,1.1-1.2.2-.2.3-.4.3-.4,0,0,0,.1,0,.2,0,0-.1.4-.2.4,0,0-.1.2-.1.3,0,0-.1.2-.2.3-.1.2-.6.8-.7.9-.1,0-.2.2-.5.4-.3.2-1.1.5-1.9.6-.2,0-.3,0-.4,0,0,0,0,0,0,0,0,0,.4,0,.4,0,0,0-.3,0-.4,0,0,0,0,0,0,0,0,0,.3,0,.3,0,0,0-.2,0-.3,0,0,0,0,0,0,0,0,0,0,0,0,0,0,0,.3,0,.3,0s-.4,0-.4,0c0,0,0,0,0,0,0,0,.4,0,.4,0,0,0-.3,0-.4,0,0,0,0,0,0-.1,0,0,.4,0,.4,0,0,0-.4,0-.4,0,0,0,.3,0,.3,0s-.2,0-.3,0c0,0,0,0,0,0,.1,0,.3,0,.3,0s-.2,0-.3,0c0,0,0,0,0,0,0,0,.3,0,.3,0,0,0-.2,0-.3,0h0ZM248.4,18.7c.1,0,.2,0,.3,0,0,0,.2,0,.3,0,0,0,.1,0,.1,0,0,0-.1,0-.2,0-.2,0-.4,0-.6,0M249.3,18.6s0,.9.2,1.3c.2.4.5.7,1,.7.3,0,.7-.4.8-.5,0,0,0,0,0,0-.4,0-.5-.1-.5-.2,0,0,0,0,0-.1,0,0,0,0,0,0,0,0-.1,0-.2,0-.1,0-.2,0-.3,0-.1,0-.2,0-.3,0,0,0,0,0,0-.1,0,0,0,0,0-.1,0,0,0-.1,0-.2,0,0,0,0,0,0,0,0-.1,0-.1,0,0,0,0-.1,0-.1,0,0-.3-.6-.4-.6M250.7,19.6s.3-.2.3-.2c0,0,0,.1,0,.1,0,0-.2.2-.3.2,0,0,0,0-.1-.1M252.5,18.8s0,0,0,0c0,.2-.3.7-.3.8,0,.1-.5.8-.6.8,0,0-.4.4-.5.5-.1.1-.3.2-.5.3,0,0-.7.3-1.1.4-.5,0-1.1,0-1.1,0,0,0,0,0,0,0,.2,0,.7,0,.8,0,0,0,.4,0,.5,0,.1,0,.4-.1.6-.2.1,0,.4-.2.5-.3.1,0,.3-.2.4-.3,0,0,.6-.6.7-.8.1-.1.4-.6.4-.7,0,0,.2-.4.2-.6M248.5,23.1s0,0,0,0c0,0,0,0,.1,0,0,0,0,0,0,0M248.6,23s-.1,0-.1,0c0,0,.2,0,.2,0,0,0,0,0,0,0M248.6,22.9s-.2,0-.2,0,.2,0,.3,0c0,0,0,0,0,0M248.7,22.8c0,0-.4,0-.3,0,.1,0,.3,0,.4,0,0,0,0,0,0,.1M248.9,22.6c0,0-.2,0-.3,0,0,0-.1,0-.1,0,0,0,.2,0,.3,0,.1,0,.2,0,.3,0,0,0,0,0-.1.1M249.1,22.5c-.1,0-.2,0-.4,0,0,0-.3,0-.3,0,0,0,.5,0,.6,0,0,0,.1,0,.2,0,0,0-.1,0-.2.1M249.3,22.3s-.2,0-.2,0c0,0-.3,0-.4,0s-.2,0-.2,0c0,0,.2,0,.3,0,.4,0,.7,0,.8-.1,0,0-.2.1-.2.1M250.4,21.8c-.6.2-.8.3-.9.3,0,0,0,0-.1,0,0,0-.3,0-.3,0,0,0-.6,0-.6,0,0,0,0,0,0,0,0,0,.2,0,.3,0,.1,0,.5,0,.6,0-.1,0-.6,0-.7,0,0,0-.2,0-.2,0,0,0,0,0,0,0,0,0,.3,0,.4,0,0,0,0,0,0,0,0,0,0,0,0,0,0,0-.3,0-.4,0,0,0-.1,0-.1,0,0,0,0,0,.1,0,.2,0,.5,0,.7,0,0,0,.4,0,.4,0,0,0,0,0,0,0-.1,0-.6.1-1.2.1,0,0,0,0,0,0,0,0,0,0,.1,0,0,0,.4,0,.4,0,.1,0,.3,0,.6,0,.3,0,.3,0,.5-.1.2,0,.5-.2.7-.3.3-.2.7-.5,1-.9.1-.2.4-.6.6-1,0,0,0-.2.1-.3h0s0,0,0,.1c0,.3-.3.6-.3.7,0,0-.2.3-.2.4,0,0-.1.1-.1.2,0,0,0,0,.1-.1,0,0,.2-.2.2-.4,0-.1.2-.4.2-.5,0,0,0,0,0,0,0,0,0,0,0,0,0,0,0,.2-.1.3,0,0-.2.3-.2.4,0,0,.2-.3.2-.3,0,0,0,.2-.1.3,0,.1-.5.6-.5.7,0,0,0,0-.1.2,0,0,0,0,0,0,.2-.1.5-.6.5-.6,0,0-.2.4-.3.5,0,.1-.7.7-1.4,1M251.9,21.2s0,0-.1,0h0s0,0,0-.1c.7-.9.7-1.9.7-2.5,0,0,0-.1,0-.1s0,0,0,0c0,0-.7.9-.8,1-.1.1,0,0-.1.1,0-.1,0-.2-.1-.3,0,0,0,0,0,0,0,0,0,0,0,0,.3-.2,1-.9,1.1-1.2,0,0,0,0,0,0,0,0,0,.1,0,.2.1.4,0,.8,0,.9,0,.1,0,.9-.4,1.6,0,0-.1.3-.2.3,0,0,0,.2-.2.2,0,0,0,0,0,0,0,0,0,0,0,0M251.3,19.5s0,0,.1,0c0,0-.1.1-.2.2,0,0,.1,0,.2,0,0,0,0,0,0,0,0,0-.1.1-.2.2,0,0,0,0,.1,0,0,0,0,0,0,0,0,0,0,0,0,0-.1.2-.4.3-.5.2,0,0,0,0,0-.1,0,0,.4-.3.5-.4M251.2,19s0,0,0,.1c0,0-.6.5-.7.5,0,0,0,0-.1,0,0,0,.9-.7,1-.7h0s0,0,0,0M251.4,18.7c0,0,0,0,0,.1-.4.3-.8.6-1.3.9,0,0,0,0,0,0,0,0,1.4-1,1.4-1.1M251.3,18.6h0s0,0,0,0c-.3.2-1.2.9-1.3.9,0,0,0,0,0,0,0,0,0,0,0,0,.1-.1,1.2-.9,1.3-.9M251.7,16.2s.1-.1.3-.1c.2,0,.3,0,.5.3,0,0,.2.2.2.4,0,0,0,0,0,0,0,0-.2,0-.2,0-.1,0-.3.1-.4.2,0,0-.3.2-.4.3-.1,0-1.4,1.2-3.2,1.2s-3.4-1.4-3.5-1.5c-.1-.1-.3-.3-.5-.3s-.2,0-.2,0,0,0,0,0c0-.2.1-.3.2-.4.1-.2.3-.3.5-.3.2,0,.3.1.3.1.2.1,1.5,1.4,3.2,1.4s3.1-1.3,3.3-1.4c0,0,0,0,0,0M250,17s-.1,0-.1,0c-.1,0-.2,0-.3.1,0,0-.1,0-.2,0,0,0-.2,0-.3,0h0c.3,0,.5,0,.8-.1,0,0,.1,0,.2,0,0,0,0,0,0,0,0,0,0,0,0,0,0,0,0,0-.1,0,0,0-.2,0-.2,0,0,0-.2,0-.3,0,0,0-.1,0-.2,0,0,0,0,0,0,0,.2,0,.4,0,.6-.1,0,0,0,0,0,0-.1,0-.3.1-.5.2-.2,0-.3,0-.5,0-.3,0-.5,0-.8,0,0,0-.4,0-.5-.1,0,0-.5-.2-.7-.3,0,0,0,0,0,0,.1,0,.5.1.5.1,0,0-.3-.1-.4-.2,0,0,0,0,0,0,.4.1.9.2,1.4.2.2,0,.4,0,.6,0,.1,0,.2,0,.4,0,0,0,.1,0,.2,0,0,0,.1,0,.2,0,0,0,.1,0,.2,0,0,0,0,0,0,0,0,0,0,0,0,0,0,0,0,0,0,0,0,0,0,0,0,0M247.8,17.1c0,0,0,0,0,0,0,0,.2,0,.2,0,0,0,0,0,0,0,0,0-.2,0-.2,0,0,0,0,0,0,0M247.9,17s0,0,0,0c0,0,0,0,0,0,0,0,.2,0,.3,0,0,0,0,0,0,0,0,0-.2,0-.2,0M248.1,16.8c0,0-.2,0-.2,0,0,0,0,0,0,0,0,0,.2,0,.2,0,0,0,0,0,0,0M248.1,17c0,0,0,0,0-.1,0,0,0,0,0-.1,0,0,0,0,0,.1,0,0,0,0,0,.1,0,0,0,.2,0,.2,0,0,0-.1,0-.2M247.9,16.8s.2,0,.2,0c0,0,0,0,0,0,0,0-.2,0-.2,0,0,0,0,0,0,0M248.5,17.1s0,0,0,0c0,0,0,0,0,0s0,0-.1,0c0,0,0,0,0,0,0,0,0,0,0,0,0,0,.2,0,.2,0M248.3,16.9s0,0,0,0c0,0,.2,0,.2,0,0,0,0,0,0,0,0,0-.2,0-.2,0M248.5,17s0,0,0,0,0,0,0,0c0,0-.1,0-.1,0,0,0-.1,0-.1,0,0,0,0,0,0,0,0,0,0,0,0,0,0,0,0,0,.1,0M248.6,16.7s0,0,0,0c0,0,0,.3,0,.3,0,0,0,0,0-.1,0-.1,0-.3,0-.3M248.3,16.7s.2,0,.2,0c0,0,0,0,0,0,0,0-.2,0-.2,0,0,0,0,0,0,0M249.5,16.6s0,0,0,0c0,0,0,0,.1,0,0,0,0,0,0,0,0,0,0,0,0,0,0,0,0,0,0,0M249.7,16.6s0,0,0,0c0,0-.2,0-.2,0,0,0,0,0,0,0,0,0,0,0,0,0,0,0,0,0,.1,0M249.4,17c0,0,0,0,0-.1,0,0,0,0,0,0,0,0,0-.1,0,0,0,0,0,0,0,0,0,0,0,.1,0,.2,0,0,0,.1,0,.1,0,0,0,0,0,0,0,0,0,0,0,0M249.2,17.1s0,0,0,0c0,0,.1,0,.1,0,0,0,0,0,0,0,0,0,0,0-.2,0M249.2,17s0,0,0,0c0,0,.1,0,.2,0,0,0,0,0,0,0,0,0-.1,0-.2,0M249.3,16.8s0,0,0,0c0,0,0,0,0,0,0,0,0,0,0,0,0,0,0,0,0,0,0,0,0,0,.1,0,0,0,0,0,0,0M249.1,16.7s0,0,0,0c0,0,.1,0,.2,0,0,0-.1,0-.1,0M249,16.9s0,0,0-.1c0,0,0,0,0,0,0,0,0,0,0,.1,0,0,0,.2,0,.3,0,0,0,0,0,0,0,0,0-.2,0-.2M249,17.1s-.2,0-.2,0c0,0,0,0,0,0,0,0,0,0,0,0,0,0,.2,0,.2,0,0,0,0,0,0,0M248.8,17.1s0,0,0,0c0,0,0,0,.1,0,0,0,.1,0,.1,0,0,0,0,0,0,0,0,0-.2,0-.2,0M249,16.9s0,0,0,0c0,0-.1,0-.1,0,0,0,0,0,0,0,0,0,0,0,0,0,0,0,.1,0,.1,0,0,0,0,0,0,0M248.9,16.8s-.1,0-.1,0c0,0,0,0,0,0,0,0,.2,0,.2,0,0,0,0,0,0,0M249.6,17s0,0,0,0,0,0,.1,0c0,0,0,0,0,0,0,0,0,0,0,0,0,0,0,0-.1,0,0,0,0,0,0,0M249.7,16.7s0,0,0-.1c0,0,0,0,0,0,0,0,0,.1.1.2,0,0,0,.1,0,.1,0,0,0,0,0,0,0,0-.1-.2-.1-.2M249.7,16.8s-.1,0-.2,0c0,0,0,0,0,0,0,0,0,0,0,0,0,0,0,0,.1,0,0,0,0,0,0,0M249.8,15.8c-.1,0-.1,0-.1,0,0,0,0,0,0,0,0,0,0,0,.1,0,0,0,0,0,.1,0,0,0,0,0,0,0,0,0-.2,0-.2,0,0,0-.3,0-.3,0,0,0,0-.1,0-.1.3,0,.6-.2.9-.5h0s-.5.7-.8.7M251.1,15.4s0,0-.1,0c0,0,0,0-.2.1,0,0,0,0,0,0,0,0-.2,0-.3,0,0,0,0,0,0,0,0,0,0,0-.1,0,0,0-.1,0-.2,0,0,0,0,0,0,0,0,0-.2,0-.2,0,0,0,.2,0,.3-.1,0,0,.2,0,.2,0,0,0,.2,0,.3-.1,0,0,0,0,.1,0,0,0,0,0,0,0,0,0-.4.1-.5.1,0,0,0,0,0,0,0,0,0-.1,0-.1,0,0,.7-.3.7-.3,0,0,.1,0,.2,0,0,0-.2.4-.3.4M252.5,14.6s0,0,0,0c0,0,0,0-.1.1,0,.1,0,.1-.1.1,0,0,0,0,0,0,0,0-.2.1-.2.1,0,0,0,0,0,0,0,0,0,0,0,0,0,0-.1,0-.1,0,0,0,0,0,0,0,0,0-.2,0-.3,0,0,0,.1,0,.1,0,0,0,0,0,0,0,0,0-.2,0-.2,0,.1,0,0,0-.1,0,0,0,.1-.1.1-.2,0,0,0,0,0,0,0,0,.2,0,.2-.1.1,0,.2-.1.3-.2,0,0-.5.2-.6.2,0,0,0,0,0,0,0,0,0-.1.1-.1,0,0,.2,0,.3-.1,0,0,.6-.4.6-.4,0,0,0,0,.1,0,0,0,0,0,0,0M253,13.6c0,0-.2.4-.3.5,0,0,0,0,0,0,0,0,0,0,0,0,0,0-.7.6-1,.7-.1,0-.1,0-.1,0,0,0,0-.2.1-.2,0,0,.6-.3.7-.4,0,0,0,0,0,0,0,0-.3.1-.3.2,0,0-.1,0-.1,0,0,0,.5-.4.6-.4,0,0,.5-.4.5-.4M253.2,12.6s0,0,0,0c0,0-.1.4-.4.8-.2.2-1,.9-1.1.9,0,0,.2-.3.3-.4.6-.4.8-.6.8-.7,0,0-.6.5-.7.5,0,0,.1-.3.1-.3,0,0,.2-.2.3-.3.1,0,.5-.5.5-.5,0,0,0,0,.1,0M252.9,12.8c0,0-.5.6-.8.6,0,0,0-.2,0-.2,0,0,.2-.2.5-.4,0,0,.2-.2.2-.2,0,0-.3.2-.4.3,0,0-.2.2-.2.1,0,0,.1-.4.1-.4,0,0,0,0,0,0,0,0,0,.1,0,.2,0,0,.1-.2.1-.2,0,0,0,0,0,0,0,0,0,.1,0,0,0,0,0-.2.2-.2,0,0,0,0,0,.1.1-.2.2-.2.2-.2,0,0,0,0,0,0,0,0,0,0,0,0,0-.1.2-.2.3-.2,0,0-.4.7-.5.8M244.2,14.5s0,0,.1,0c0,0,.6.4.6.4,0,0,.2.1.3.1,0,0,.1,0,.1.1,0,0,0,0,0,0,0,0-.5-.2-.6-.2.1,0,.2.1.3.2,0,0,.2,0,.2.1,0,0,0,0,0,0,0,0,.1.1.1.2,0,0-.2,0-.1,0,0,0-.1,0-.2,0,0,0-.1,0-.1,0,0,0,0,0,.1,0-.1,0-.3,0-.3,0,0,0,0,0,0,0,0,0,0,0-.1,0,0,0,0,0,0,0,0,0,0,0,0,0,0,0-.2-.1-.2-.1,0,0,0,0,0,0,0,0-.2,0-.1-.1,0,0-.1,0-.1-.1,0,0,0,0,0,0,0,0,0,0,0,0M244.4,14c0,0,.5.4.6.4,0,0,0,0-.1,0,0,0-.3-.1-.3-.2,0,0,0,0,0,0,0,0,.6.4.7.4,0,0,.2.1.1.2,0,0,0,0-.1,0-.3,0-1-.6-1-.7,0,0,0,0,0,0,0,0,0,0,0,0,0,0-.3-.3-.3-.4,0,0,.4.3.5.3M243.7,12.7s.4.4.5.5c.1,0,.3.2.3.3,0,0,.2.3.1.3-.1,0-.7-.5-.7-.5,0,0,.2.3.8.7,0,0,.2.4.3.4,0,0-1-.7-1.1-.9-.2-.4-.4-.7-.4-.8,0,0,0,0,0,0,0,0,0,0,.1,0M250.7,12.3c0,0,.1,0,.2.1,0,0,.1,0,0,.1,0,0,0,0,0,0,0,0-.1-.1-.2-.2,0,0,0,0,0,0,0,0,0,0,0,0M250.8,12.2s0,0,0,0c0,0,0,0,.1,0,0,0,0,0,0,0,0,0,0,0,0,0,0,0,0,0,0,0,0,0-.1-.1-.2-.2M250.6,11.8s0,0,0,0c0,0,0,0,0,0,0,0,0,0,0,0,0,0,0,0-.1,0M251,12.2h0s.1,0,.1.1c0,0,0,0,0,0,0,0,0,0,0,0M250.5,12s0,0,0,0c0,0,0,0,0,0M250.3,12.3s0,0,0,0c0,0,0,0,0,0M250.5,12.8s0,0,0,0c0,0,.1,0,.1.1,0,0-.1,0,0,0,0,0,0,0,0,0M250.1,12.7c0,0,.1,0,.1,0,0,0-.2,0-.1,0M250.4,12.9s0,0,0,0c0,0,0,0,0,.1,0,0,0,0-.1,0,0,0,0,0,0,0M250.4,12.6c0,0-.1,0-.2,0h0s0,0,0,0c0,0,.1,0,.1.1M250.2,12.9c0,0-.1,0-.2,0,0,0,0,0,.1,0,0,0,0,0,0,0M250.2,12.6s0,0,0,0c0,0,.1,0,.1.1,0,0-.1,0-.1,0M245.7,21c0,0-.2-.1-.2-.2,0,0-.1-.1-.2-.2,0,0-.1,0,0-.1,0,0,.4.4.4.4,0,0,.2.1.3.2,0,0,.2.1.2.1,0,0,.2.1.2.1-.1,0-.2,0-.3-.2,0,0-.2-.1-.3-.2M247.7,17.4c0,0,.1,0,.2,0h0c0,0-.2,0-.3,0,0,0-.3,0-.2,0,0,0,0,0,0,0,0,0,.2,0,.3,0M247.3,17.2s0,0,0,0c0,0,.4,0,.5,0,0,0,0,0,0,0-.2,0-.3,0-.5,0,0,0-.1,0-.1,0M248.1,16.4s-.2,0-.3,0h0s.2,0,.2,0c0,0,0,0,0,0M248,16.5s-.2,0-.3,0c0,0,0,0,0,0,0,0,.3,0,.3,0M248.2,16.3s-.3,0-.4,0c0,0,0,0,0,0,0,0,.3,0,.3,0M246.7,21.9s-.1,0-.2,0c0,0-.2,0-.3-.1,0,0-.2-.1-.4-.2,0,0-.2-.1-.2-.2,0,0,0,0,0,0,.2,0,.9.5,1.1.6,0,0,0,0,0,0M247.8,15.6c-.1,0-.3,0-.4,0,0,0,0,0,0,0,0,0,.4,0,.4,0M246.2,12.8s0,0,0,0c0,0,0,0,0,0,0,0,0,0,0,0,0,0,0,0,0,0M246.5,12.6s0,0,0,0c0,0,0,0,0,0,0,0,0,0,0,0,0,0,0,0,0,0,0,0,0,0,0,0M246.6,12.6s0,0,0,0c0,0,0,0-.1,0,0,0,0,0,.1-.1M246.3,12.9s0,0,0,0c0,0,0,0,0,0,0,0,0,0,0,0,0,0,0,0,0,0M246.1,13.6s0-.1,0-.2c0,0,0,.2,0,.2,0,0,0,.4,0,.4,0,0,0,.3,0,.3s0,0,0,0c0,0,0,0,0,0,0-.2,0-.4,0-.5,0,0,0-.3,0-.3M246.7,12.7c0,0,0,0-.1,0,0,0,0,0,.1,0M245.7,13.2s0,0,0,0c0,0,0,0,0,0h0ZM246.3,13.1s0,0,0,0c0,0,0,0,.1,0,0,0,0,.1-.1,0M246.3,12.1s0,0,0,0c0,0,0,0,0,0,0,0,0,0,0,0M246.8,12.8s0,0,0,0c0,0,0,0,0,0,0,0,0,0,0,0,0,0,0,0,.1-.1M246.4,12.4s0,0,0,0c0,0,0,0,0,0M246.1,11.9s0,0,0,0c0,0,0,0,0,0,0,0,0,0,0,0M247.5,12s0,0,0,0c0,0,.4,0,.4,0,0,0-.2,0-.3,0,0,0,0,0,0,0M246.9,14.7s0,0,0,0c0,0,.2,0,.3,0h0c0,0-.3,0-.3,0M247.6,15.5c0,0-.3,0-.3,0,0,0,.3,0,.3,0,0,0,0,0,0,0M246.9,14.6s0,0,0,0c0,0,.3,0,.3,0,0,0-.3,0-.3,0M247,15s.3,0,.3,0c0,0,0,0,0,0,0,0-.3,0-.3,0M247,14.8s.2,0,.3,0c0,0,0,0,0,0,0,0-.3,0-.3,0M247.2,15.3s.3,0,.4,0c0,0,0,0,0,0,0,0-.3,0-.3,0M247.1,15.1s.3,0,.4,0h0s-.4,0-.4,0M247.1,15.2s.2,0,.3,0c0,0,0,0,0,0,0,0-.3,0-.3,0M248,21.8c-.2,0-.4,0-.5,0h0s0,0,0,0c.2,0,.4,0,.5,0,0,0,0,0,.1,0s0,0,0,0c0,0-.2,0-.3,0M247.3,21.7s0,0,0,0c0,0-.2,0-.3,0-.2,0-.4-.1-.6-.2h0s0,0,0,0c.1,0,.4.2.6.2.1,0,.4,0,.4.1M247.4,12.1h0s0,0,0,0c0,0,.2,0,.3,0,0,0-.2,0-.3,0M247.3,12.3h0c0,0,.1,0,.2,0h0c0,0-.2,0-.2,0M247.4,18.6c0,0,0,0,0,0,0,0-.4-.1-.4-.1,0,0,0,0,0,0,0,0,.3.1.3.2,0,0,0,0,0,0,0,0-.4-.2-.4-.2,0,0,0,0,0,0,0,0,.3.2.3.2,0,0,0,0,0,0,0,0-.5-.3-.5-.3,0,0,0,0,0,0,0,0,.4.3.4.3,0,0,0,0,0,0,0,0-.5-.3-.5-.3,0,0,.4.3.5.4h0c-.2,0-1.1-.7-1.2-.8,0-.1.1-.2.2-.3.8.4,1.4.6,1.4.6M245.7,20.1s0,0,0,0c.3,0,.4-.2.4-.2,0,0,0,0,0-.1,0,0,0-.1.1,0,0,0,.1,0,.2,0,0,0,.4,0,.4,0,0,0,0,0,0-.1,0,0,0,0,0-.1,0,0,.1-.2.1-.2,0,0,.1,0,.1,0,0,0,0,0,0-.1.1-.2.2-.4.3-.6,0,0,0,.5,0,.7,0,.4,0,.5-.2.7-.1.2-.4.5-.7.4-.4,0-.7-.3-.8-.4M246,19.7c0,0-.3-.2-.3-.2,0,0,0,0,0-.1,0,0,.3.2.3.2,0,0,0,0-.1.1M245.6,19.1s0,0,0,0c0,0,0,0,0,0,0,0,.9.6.9.7,0,0,0,0,0,0,0,0-.2,0-.2,0,0,0-.7-.5-.7-.6M245.5,19.5c0,0,.1.1.2.2,0,0,.1.1.2.2,0,0,0,0,0,0,0,0,0,0,0,0,0,0-.2,0-.3,0,0,0-.2-.2-.2-.3,0,0,0,0,0,0,0,0,0,0,.1,0,0,0,0,0,0,0,0,0,0,0-.1-.1,0,0,0,0,0,0,0,0,0,0,0,0,0,0,0,0,.1,0,0,0,0-.1-.2-.2,0,0,0,0,.1,0M249.6,18.5c.4-.1.8-.3,1.2-.5,0,0,0,.1.2.2-.3.2-.9.7-1.2.9,0,0,0,0,0,0,0,0,.3-.2.3-.3,0,0,0,0,0,0,0,0-.4.3-.4.3,0,0,0,0,0,0,0,0,.2-.1.3-.3,0,0,0,0,0,0,0,0-.4.3-.4.2,0,0,0,0,0,0,0,0,.2-.1.3-.2,0,0,0,0,0,0,0,0-.3.2-.3.2,0,0,0,0,0,0,0,0,.3-.2.3-.2,0,0-.3.2-.3.1,0,0,0,0,0,0,0,0,.1,0,.2,0M251.2,18.6c-.3.2-.9.7-1.2.9,0,0,0,0,0,0,0,0,.4-.3.4-.3h0s-.4.3-.4.3c0,0,0,0,0,0,.3-.2.9-.7,1.2-.9,0,0,0,.1.1.2M251,18.3s0,0,0,0c0,0-1,.7-1.3.9,0,0,0,0,0,0,0,0,0,0,0,0,0,0,1.2-.9,1.3-.9M250.7,18.1s0,0,0,0c0,0,0,0,0,0,0,0,0,0,0,0,0,0,0,0,0,0,0,0,0,0,0,0M250.9,18.2c0,0-.1.1-.2.1,0,0,.1-.1.2-.1M251.1,18.5s0,0,0,0c0,0,0,0,0,0,0,0,0,0-.1,0,0,0,.1-.1.2-.2M246,18.3c0,0,.2,0,.2.1,0,0-.1,0-.2-.1M246.1,18.2s0,0,0,0c0,0,0,0,0,0,0,0,0,0,0,0,0,0,0,0,0,0,0,0,0,0,0,0M247.3,10.1c.4-.2.7-.3,1-.3s.5,0,.7.1c.6.2,1.1.8,1,1.6,0,0,0-.4-.1-.7,0-.2-.4-.7-.8-.9-.2,0-.4-.2-.7-.2-.3,0-.7,0-.9.1-.2,0-.2,0-.3.1,0,0,0,0,0,0,0,0,0,0,0,0M247.4,10.2s0,0,0,0c0,0,0,0,0,0,0,0,.1.1.1.2,0,.1,0,.3,0,.3,0,0,0,0,0,0s0,0,0-.1c0-.2-.2-.3-.2-.3M248.7,11.8c0,0,0,.2-.2.2s-.2,0-.2-.2,0-.2.2-.2.2,0,.2.2M249,13c0,0,0,.2,0,.3s0,.3-.2.4c-.1.1-.3.2-.5.2-.4,0-.7-.2-.7-.6s.1-.4.2-.4c0,0,.1,0,.2,0,0,0,0,0,0,0,0,0-.2.1-.2.3,0,.2.2.4.5.4.3,0,.5-.2.5-.4s0-.2-.1-.3c0,0-.2-.1-.1-.1,0,0,.2,0,.2.1M248.8,11.8c0,.1,0,.2-.2.2s-.2-.1-.2-.2.1-.2.2-.2.2,0,.2.2M248.7,11.8c0,0,0,.1-.1.1s-.1,0-.1-.1,0-.1.1-.1.1,0,.1.1M248.5,14s0,0,0,0,0,0,0,0,0,0,0,0,0,0,0,0M247.4,13s0,0,0,0c0,0,0,.2,0,.2,0,0,0,.2,0,.3,0,0,0,.2,0,.3,0,.1,0,.2,0,.2,0,0,0-.1,0-.2,0,0,0-.3,0-.5s0,0,0,0c0,0-.1,0-.1,0,0,0,0,0,0,.2,0,.2,0,.4,0,.5,0,0,0,0,0,.1,0,0,0,0,0-.1,0,0,0-.3,0-.3,0-.1,0-.4,0-.4,0,0,0-.1,0-.1,0,0,0,0,0,0,0,0,.1,0,.2,0,0,0,0-.1,0-.1M247.3,13.2s0,0,0,0c0,0-.1,0-.1,0,0,0,0,0,0,0,0,0,.1,0,.1,0M247.5,14.3c0,0,0,.1-.1.1s-.1,0-.1-.1,0-.1.1-.1.1,0,.1.1M247.5,14.3c0,0,0,.2-.2.2s-.2,0-.2-.2,0-.2.2-.2.2,0,.2.2M247.5,12.9s0,.3,0,.7c0,.1,0,.4.1.4,0,0,.1.3.1.3,0,0-.2.2-.3.2-.1,0-.2-.1-.3-.2,0-.1,0-.1,0-.3,0-.3,0-.6,0-.7,0-.1,0-.3-.1-.4.2,0,.3,0,.5,0M249.4,13.1s.1,0,.2,0c0,0,0,0,0,0,0,0,0,0,0,.1,0,0,0,.3,0,.4,0,0,0,.3,0,.3,0,0,0,.1,0,.1,0,0,0,0,0-.1,0,0,0-.3,0-.5,0,0,0-.1,0-.2,0,0,0,0-.1,0,0,0,0,0,0,0,0,.1,0,.4,0,.5,0,0,0,.2,0,.2,0,0,0-.1,0-.2,0,0,0-.2,0-.3,0,0,0-.2,0-.3,0,0,0-.2,0-.2,0,0,0,0,0,0,0,0,0,.1,0,.1M249.6,13.2s0,0,0,0c0,0-.1,0-.1,0,0,0,0,0,0,0,0,0,.1,0,.1,0M249.4,14.1c0,0,.1,0,.1.1s0,.1-.1.1-.1,0-.1-.1,0-.1.1-.1M249.4,14.1c0,0,.2,0,.2.2s0,.2-.2.2-.2,0-.2-.2,0-.2.2-.2M249.3,12.9c.2,0,.3,0,.5,0,0,.1-.1.3-.1.4,0,.1,0,.5,0,.7,0,0,0,.2,0,.3,0,0-.2.2-.3.2,0,0-.3-.2-.3-.2,0,0,0-.2.1-.3,0,0,0-.3.1-.4,0-.5,0-.7,0-.7M247.4,16.9s.2,0,.2,0c0,0,0,0,0,0,0,0-.2,0-.2,0,0,0,0,0,0,0,0,0,0,0,0,0M247.4,17.1s.1,0,.2,0c0,0,0,0,0,0,0,0,0,0,0,0,0,0-.2,0-.2,0,0,0,0,0,0,0,0,0,0,0,0,0,0,0,0,0,0,0M249.5,12s0,0,0,0c0,.1,0,.2,0,.3,0,0,0,0,0,0,0,0,0,0,0,0,0,0,0,0,0-.1,0,0,.2-.4.2-.9,0-.1,0-.6-.2-.8,0,0-.1-.3-.4-.5-.3-.2-.7-.3-1.1-.3-.1,0-.5,0-.7.2,0,.1.1.2.1.3,0,0,0,.2,0,.2,0,0,0,0,0,0,0,0,0-.1,0-.2s0-.1-.1-.2c0,0,0-.1.1-.1,0,0,.1.1.1.2,0,0,0,.2,0,.3,0,0,0,0,.1,0,0,0,0-.1,0-.2,0,0,0-.2,0-.2,0,0,0-.1.1,0,0,0,0,.1,0,.2,0,0,0,.2-.1.3,0,0,0,0,0,0h0s0-.1.1-.2c0,0,0-.2,0-.2,0,0,.1,0,.2,0,0,0,0,.1,0,.2,0,0-.1.2-.2.2,0,0,0,0,0,0,0,0,.1-.1.2-.2,0,0,0-.2,0-.2,0,0,.1,0,.2,0,0,0,0,.1,0,.2,0,0-.1.2-.2.2,0,0,0,0,0,0,0,0,.1,0,.2-.1,0,0,0-.1,0-.2,0,0,.1,0,.2,0,0,0,0,.1,0,.2,0,0-.2.1-.2.2,0,0,0,0,0,0,0,0,.2,0,.2,0,0,0,0-.1.1-.2,0,0,.1,0,.2,0,0,0,0,.1-.1.2,0,0-.2,0-.3.1,0,0,0,0,0,0,0,0,.2,0,.2,0,0,0,.1-.1.2-.1,0,0,.1,0,.1,0,0,0,0,.1-.2.2,0,0-.2,0-.3,0,0,0,0,0,0,0,0,0,.1,0,.2,0,0,0,.1,0,.2-.1s.1,0,.1.1c0,0-.1.1-.2.1,0,0-.1,0-.2,0,0,0,0,0,0,.1,0,0,0,0,.1,0,0,0,.1,0,.2,0,0,0,.1,0,0,.1,0,0,0,0-.2,0,0,0-.1,0-.2,0,0,0,0,0,0,.1,0,0,0,0,0,0,0,0,.1,0,.2,0s0,0,0,.1c0,0-.1,0-.2,0,0,0,0,0-.1,0h0s0,0,0,.1c0,0,0,0,0,0,0,0,.1,0,.2,0s0,.1,0,.1c0,0-.1,0-.2,0,0,0,0,0,0,0,0,0,0,0,0,0,0,0,0,0,0,0,0,0,.1,0,.2,0,0,0,0,.1,0,.1,0,0-.1,0-.2,0,0,0,0,0,0,0M249.4,11.1h0,0ZM248.5,16.1h-.2v-.4h.2v.4ZM248.5,16h-.1v-.2h.1v.2ZM248.6,16.1h-.4v-.5h.4v.5ZM248.2,16.2h.5c.2-.1.4-.1.6-.1,0,0,.1,0,.2,0h0s0,0,0,0c-.2,0-.6,0-.6,0,.2,0,.7,0,.7,0,0,0,0,0,0,0-.1,0-.2,0-.3,0h0c.1,0,.4,0,.5,0,0,0,0,0,0,0,0,0-.5,0-.5.1,0,0,0,0,0,0,.2,0,.4,0,.5,0,0,0,0,0,0,0,0,0-.5.1-.7.1h0c.2,0,.4,0,.6,0,0,0,0,0,0,0,0,0,0,0,0,0-.2,0-.4,0-.6.1,0,0-.1,0-.2,0-.4,0-.7,0-1.1,0-.1,0-.3,0-.4,0,0,0-.1,0-.2,0,0,0,0-.1,0-.1,0,0,.1,0,.1,0,0,0-.1,0-.1,0,0,0,0,0,0,0,0,0,0,0,0,0,0,0,0,0,0,0,0,0,0-.1,0-.2.2,0,.5,0,.7,0,0,0,0,0,.1,0h0ZM248.6,15.7s.2,0,.3,0c0,0,.2,0,.3,0,0,0,.1,0,.2,0,0,0,0,0,0,0,0,0-.1,0-.2,0,0,0-.2,0-.3,0,0,0,0,0,0,0,0,0,.1,0,.2,0,0,0,.1,0,.2,0,0,0,0,0,0,.1,0,0,0,0,0,0-.2,0-.6,0-.8,0v-.3M252.1,21.2s.6-.8.7-1.7c.1-1,0-1.5,0-1.6,0,0,0,0,0,0,0,0,0,0,0,0,0,0,.2.6,0,1.6-.1,1-.7,1.7-.7,1.7,0,0,0,0,0,0,0,0,0,0,0,0M244.8,21.3s0,0,0,0c0,0-.6-.8-.7-1.7-.1-1,0-1.5,0-1.6,0,0,0,0,0,0,0,0,0,0,0,0,0,0-.2.6,0,1.6.1,1,.7,1.7.7,1.7,0,0,0,0,0,0M244.8,16.5h0s0,0,0,0h0c0,0,0,0,0,0h0s0,0,0,0l.2-.3s0,0,0,0h0s0,0,0,0c0,0,0,0,0,.1,0,0,0,0-.2,0M244.9,16.3h0s0,0,0,0h0c0,0,0,0,0,0,0,0,0,0,0,0,0,0,0,0,0,0,0,0,0,0,0,0M244.9,16.8s0,0,0,0c0,0,0,0,0,0,0,0,0,0,0-.2,0,0,0-.1.1-.1,0,0,0,0,0,0,0,0,0,0,0,0,0,0,0,0,0,.2,0,0,0,.1-.1.1M245.1,16.5s0,0,0,0c0,0,0,0,0,0,0,0,0,0,0,0,0,0,0,0,0,.1,0,0,0,0,0,0,0,0,0,0,0,0,0,0,0,0,0,0,0,0,0,0,0-.1M245.1,16.9s0,0,0,0c0,0,0,0,0,0,0,0,0,0,0,0l.2-.2s0,0,0,0h0s0,0,0,0l-.2.2s0,0,0,0c0,0,0,0,0,0,0,0,0,0,0,0l.2-.2s0,0,0,0h0s0,0,0,0l-.2.2s0,0,0,0M245.3,17.1s0,0,0,0h0c0-.1,0-.1,0-.1,0,0,0,0,0,0h0c0,0,0,.1,0,0h0s0,0,0,0l.2-.3s0,0,0,0h0s0,0,0,0c0,0,0,0,0,.1,0,0,0,0-.1,0v.2c0,0,0,0,0,0h0ZM245.5,16.8h0s0,0,0,0h0c0,0,0,0,0,0,0,0,0,0,0,0,0,0,0,0,0,0,0,0,0,0,0,0M245.5,17.3s0,0,0,0l.2-.3s0,0,0,0h0s0,0,0,0l-.2.2s0,0,0,0h0s0,0,0,0c0,0,0,0,0,0h0ZM245.8,17.5s0,0,0,0h0s0,0,0,0h0s0,0,0,0h0s0,0,0,0h0s0,0,0,0l.3-.2s0,0,0,0h0s0,0,0,0v.3c-.1,0-.1,0-.2,0h0ZM245.9,17.2s0,0,0,0h0c0,0,0,.1,0,.1h0s0,0,0,0h0ZM246.2,17.5h0s0,0,0,0h0c0,0,0,.1,0,0h0s0,0,0,0l.2-.3s0,0,0,0h0s0,0,0,0c0,0,0,0,0,.1,0,0,0,0-.2,0M246.3,17.3h0s0,0,0,0h0c0,0,0,0,0,0,0,0,0,0,0,0,0,0,0,0,0,0,0,0,0,0,0,0M246.4,17.8s0,0,0,0h0s0,0,0,0h0s0,0,0,0h0s0,0,0,0h0s0,0,0,0l.2-.3s0,0,0,0h0s0,0,0,0v.3c0,0-.1,0-.1,0h0ZM246.4,17.5s0,0,0,0h0c0,.1,0,.1,0,.1h0s0,0,0,0h0ZM246.7,17.6s0,0,0,0v.3c-.1,0-.1,0-.2,0h0s0,0,0,0v-.3c.1,0,.1,0,.1,0h0s0,0,0,0c0,0,0,0,0,0h.1c0,0,0,0,0,0,0,0,0,0,0,0h0ZM246.8,18s0,0,0,0h0c0-.1,0-.1,0-.2,0,0,0,0,0,0h0c0,.1,0,.1,0,.1h0s0,0,0,0v-.3c.1,0,.2,0,.2,0h0s0,0,0,0c0,0,0,0,0,.1,0,0,0,0,0,0v.2s0,0,0,0h0ZM246.9,17.6h0s0,0,0,0h0c0,0,0,0,0,0,0,0,0,0,0,0,0,0,0,0,0,0,0,0,0,0,0,0M246.9,18s0,0,0,0v-.3c.1,0,.1,0,.2,0h0s0,0,0,0v.3c-.1,0-.1,0-.2,0h0ZM247.1,18.1s0,0,0,0v-.3c.1,0,.1,0,.1,0h.1s0,0,0,0c0,0,0,0,0,0h0s0,0,0,0h0c0,0,0,0,0,0h0s0,0,0,0c0,0,0,0,0,0h0s0,0,0,0h0c0,0,0,0,0,0h0s0,0,0,0c0,0,0,0,0,0h-.1ZM247.4,18.2s0,0,0,0v-.3c0,0,0,0,.1,0h0s0,0,0,0v.3c0,0,0,0,0,0h0s0,0,0,0c0,0,0,0,0,0h-.1ZM247.6,18.2s0,0,0,0v-.3c0,0,0,0,0,0h.1s0,0,0,0c0,0,0,0,0,0h0s0,0,0,0h0c0,0,0,0,0,0h0s0,0,0,0c0,0,0,0,0,0h0s0,0,0,0h0c0,0,0,0,0,0h0s0,0,0,0c0,0,0,0,0,0h-.1ZM248,18.3s0,0,0,0c0,0,0,0,0,0,0,0,0,0,0,0h0s0,0,0,0c0,0,0,0,0,0,0,0,0,0,0,0,0,0,0,0,0,0,0,0,0,0,0,0,0,0,0,0,0,0h0s0,0,0,0c0,0,0,0,0,0,0,0,0,0,0,0,0,0,0,0,0,0,0,0,0,0,0,0,0,0,0,0,0,0h0s0,0,0,0c0,0,0,0,0,0,0,0,0,0,0,0,0,0,0,0,0,0,0,0,0,0,0,0,0,0,0,0,0,0h0s0,0,0,0c0,0,0,0,0,.1,0,0,0,0,0,0M248.4,18.3s0,0,0,0c0,0,0,0,0,0,0,0,0,0,0,0h0s0,0,0,0c0,0,0,0,0,0,0,0,0,0,0,0s0,0,0,0c0,0,0,0,0,0,0,0,0,0,0,0h0s0,0,0,0c0,0,0,0,0,0,0,0,0,0,0,0,0,0,0,0,0,0,0,0,0,0,0,0,0,0,0,0,0,0h0s0,0,0,0c0,0,0,0,0,0,0,0,0,0,0,0s0,0,0,0c0,0,0,0,0,0,0,0,0,0,0,0h0s0,0,0,0c0,0,0,0,0,0,0,0,0,0,0,0M248.6,18.3s0,0,0,0c0,0,0,0,0,0,0,0,0,0,0-.2,0,0,0-.1,0-.2,0,0,0,0,0,0,0,0,0,0,0,0,0,0,0,0,0,0h0s0,0,0,0h0s0,0,0,0c0,0,0,0,0,0,0,0,0,0,0,.1,0,0,0,.1,0,.1,0,0,0,0,0,0,0,0,0,0,0,0,0,0,0,0,0,0h0s0,0,0,0M248.8,18.3s0,0,0,0v-.3s0,0,0,0h0s0,0,0,0v.3s0,0,0,0h0ZM248.9,18.3s0,0,0,0v-.3c0,0,0,0,0,0h.1s0,0,0,0c0,0,0,0,0,0h0s0,0,0,0h0c0,0,0,0,0,0h0s0,0,0,0c0,0,0,0,0,0h0s0,0,0,0h0c0,0,0,0,0,0h0s0,0,0,0c0,0,0,0,0,0h-.1ZM249.3,18.2s0,0,0,0v-.2c-.1,0-.1,0-.1,0v.2s0,0,0,0h0s0,0,0,0v-.3c0,0,0,0,0,0s0,0,0,0v.2c.1,0,.1,0,.1,0v-.2s0,0,0,0h0s0,0,0,0v.3c0,0,0,0,0,0M249.6,18.1s0,0,0,0c0,0,0,0,0,0,0,0,0,0,0-.2,0,0,0-.1,0-.2,0,0,0,0,0,0,0,0,0,0,0,0,0,0,0,0,0,0h0s0,0,0,0c0,0,0,0,0,0,0,0,0,0,0,0,0,0,0,0,0,0,0,0,0,0,0,.1,0,0,0,.1,0,.1,0,0,0,0,0,0,0,0,0,0,0,0,0,0,0,0,0,0h0s0,0,0,0M249.7,18.1s0,0,0,0v-.3c-.1,0-.1,0,0,0h.1s0,0,0,0c0,0,0,0,0,0h0s0,0,0,0h0c0,0,0,0,0,0h0s0,0,0,0c0,0,0,0,0,0h0s0,0,0,0h0c0,0,0,0,0,0h0s0,0,0,0c0,0,0,0,0,0h-.1ZM250,17.9s0,0,0,0c0,0,0,0,0,0,0,0,0,0,0,0h0s0,0,0,0c0,0,0,0,0,0,0,0,0,0,0,0,0,0,0,0,0,0,0,0,0,0,0,0,0,0,0,0,0,0h0s0,0,0,0c0,0,0,0,0,0,0,0,0,0,0,0,0,0,0,0,0,0,0,0,0,0,0,0,0,0,0,0,0,0h0s0,0,0,0c0,0,0,0,0,0,0,0,0,0,0,0s0,0,0,0c0,0,0,0,0,0,0,0,0,0,0,0h0s0,0,0,0c0,0,0,0,0,0,0,0,0,0,0,0M250.3,17.9s0,0,0,0l-.2-.3s0,0,0,0h.1c0,0,0,0,0,0,0,0,0,0,0,0h0s0,0,0,0h0c0,0,0,0,0,0h0s0,0,0,0c0,0,0,0,0,0h0s0,0,0,0h0c0,0,0,0,0,0h0s0,0,0,0c0,0,0,0,0,0h-.1ZM250.4,17.4s0,0,0,0v.3c.1,0,.1,0,.1,0h0s0,0,0,0v-.3c-.1,0-.2,0-.2,0h0s0,0,0,0c0,0,0,0,0,0h.1c0,0,0,0,0,0,0,0,0,0,0,0h0ZM250.8,17.6s0,0,0,0l-.2-.3s0,0,0,0h0s0,0,0,0l.2.2s0,0,0,0h0s0,0,0,0c0,0,0,0,0,0h0ZM251.1,17.4s0,0,0,0h0s0,0,0,0h0s0,0,0,0h0s0,0,0,0h0s0,0,0,0v-.3c-.1,0-.1,0-.1,0h0s0,0,0,0l.3.2s0,0,0,0h0ZM250.8,17.2s0,0,0,0h0c0,.1,0,.1,0,.1h0s0,0,0,0h0ZM251.3,17.2s0,0,0,0c0,0,0,0-.1-.1,0,0,0-.1,0-.2,0,0,0,0,0,0,0,0,0,0,0,0,0,0,0,0,0,0h0s0,0,0,0c0,0,0,0,0,0,0,0,0,0,0,0,0,0,0,0,0,.1,0,0,0,0,0,.1,0,0,0,0,0,0,0,0,0,0,0,0h0s0,0,0,0c0,0,0,0,0,0,0,0,0,0,0,0h0s0,0,0,0h0c0,.1,0,.2,0,.2M251.4,17.1s0,0,0,0l-.2-.3s0,0,0,0h0s0,0,0,0l.2.2s0,0,0,0h0s0,0,0,0c0,0,0,0,0,0h0ZM251.7,16.9s0,0,0,0c0,0,0,0,0,0,0,0,0,0-.1-.1,0,0,0-.1,0-.2,0,0,0,0,0,0,0,0,0,0,0,0,0,0,0,0,.1.1,0,0,0,.1,0,.2M251.5,16.7s0,0,0,0c0,0,0,0,0,0,0,0,0,0,0,.1,0,0,0,0,0,0,0,0,0,0,0,0,0,0,0,0,0,0,0,0,0,0,0-.1,0,0,0,0,0,0M251.8,16.8s0,0,0,0l-.2-.3s0,0,0,0h0s0,0,0,0l.2.3s0,0,0,0h0ZM252,16.7s0,0,0,0h0c0,0,0,0,0,0,0,0,0,0,0,0h0c0,0,0,.1,0,.1h0s0,0,0,0l-.2-.3s0,0,0,0h0s0,0,0,0c0,0,0,0,.1,0,0,0,0,0,0,.1h.1c0,.1,0,.1,0,.1h0ZM251.8,16.4h0s0,0,0,0h0c0,0,0,0,0,0,0,0,0,0,0,0,0,0,0,0,0,0,0,0,0,0,0,0M252.1,16.6s0,0,0,0l-.2-.3s0,0,0,0h0c0,0,0,0,0,0,0,0,0,0,0,0h0s0,0,0,0h0c0,0,0,0,0,0h0s0,0,0,0c0,0,0,0,0,0h0s0,0,0,0h0c0,0,0,0,0,0h0s0,0,0,0c0,0,0,0,0,0h0ZM253.1,12s-1.1.7-1.3.9c-.2.2-.8.8-.9.9,0,0,0,0,0,0,0-.1.2-.3.2-.3,0,0-.1.1-.1.1,0,0,0,0,0,0,0,0,0-.1,0-.1,0,0,.1-.2.2-.2,0,0-.1.1-.2.2,0,0,0,0,0,0,0,0,0,0,0,0,0,0,.2-.2.2-.3,0,0-.1.1-.2.2,0,0,0,0,0,0,0,0,0,0,0,0,.7-.7,2.3-1.4,2.4-1.4s0,0,0,0M248.2,12.8c0,0-.5,0-.6,0,0,0,0,0,0-.1,0,0,0,0,0,0-.1,0-.3,0-.4,0,0,0,0,0,0,0h0s0,0,0,0c0,0-.1-.2-.2-.3,0,0,0,0,0-.1,0,0,0,0,0,0,0,0,0,0,0,0,0,0,0,0,0,0,0,0,0,0,0,0,0,0,0-.1,0-.2,0,0-.1-.2-.2-.2,0,0,0,0,0,0,0,0,0,0-.1-.1,0,0-.2,0-.2.1-.2.1-.5.3-.5.4,0,0,0,0,0,0,0,0,0,0,0,0,0,0,0,0,0,0s.2.3.3.4c0,0,0,0,0,0,0,0,0,0,0,0,0,0,0,0,.1.1,0,0,0,.1.1.2,0,0,0,0,0,.1,0,0,0,.2-.2,0-.9-.7-2.6-1.4-2.8-1.5,0,0,0,0,0,0,0,0,.2.3.3.5,0,0,.3.4.3.5,0,0-.2,0-.2,0,0,0,0,0,0,.2,0,0,.2.5.4.9,0,0,0,0,0,0,0,0-.2,0-.2,0,0,0,0,0,0,0,0,0,.1.3.5.8,0,0,0,0,0,0,0,0,0,0,0,.1,0,0,.2.3.2.3,0,0,.2.3.4.3.1,0,.4.2.4.3,0,0,.3.1.4.1,0,0,.1,0,.2,0,0,0,0,0,.1,0,.4.2.6.2.9.2.1,0,.2,0,.3,0,0,0,.2.2.2.2,0,0,0,.2-.1.2,0,.1-.4.6-.4.7,0,0,0,.1-.1.1,0,0-.5-.3-.6-.3,0,0-.8-.6-.9-.7,0,0-.5-.3-.8.2-.3.5-.3.9.2,1.4,0,0,.2.3.2.5,0,0,0,0,0,0,0,0,.5-.4.5-.8.2.2.5.4.8.5,0,0,0,.1,0,.1,0,0,0,.1,0,.1,0,0-.1,0-.1,0,0,0,0,0,0,.1,0,0,0,0,0,0,0,0,0,0,0,0,0,0,0,0,0,0,0,0,0,0,0,0,0,0,0,0,0,0,0,0,0,0,0,.1,0,0,0,0,0,0,0,0,0,0,0,0,0,0,.3.4.2.5,0,0,0,0-.1,0,0,0,0,0-.1,0,0,0,0-.2,0-.2,0,0,0,0,0,0,0,0-.7-.6-.7-.7,0,0-.2-.3-.3-.4,0,0-.2-.4-.3-.4,0,0,0,0,0,.1,0,0,0,0,0,.1,0,.2-.2.8,0,1.6.1.9.6,1.6.8,1.8,0,0,0,0,0,0,0,0,.2-.2.3-.2,0,0,0,0,0,0,0,0,0,0,0,0,.3.3.6.6,1.1.8.2,0,.3.1.4.2.8.3,1.4.5,1.7,1.5,0,0,0,0,0,0,0,0,0,0,0,0,.3-1,.8-1.2,1.7-1.5.1,0,.3-.1.4-.2.5-.2.9-.5,1.1-.8,0,0,.2.2.3.2,0,0,0,0,0,0,.2-.2.7-.9.8-1.8.1-.8,0-1.4,0-1.6,0,0,0-.2-.1-.2,0,0,0,0-.1,0,0,0,0,0,0,.1-.4.7-1.2,1.2-1.2,1.3,0,0,0,.1,0,.2,0,0,0,0-.1,0,0,0-.1,0-.1,0,0,0,0-.1,0-.1,0,0,0-.1.1-.2,0,0,0-.1,0-.2,0,0,0-.1,0-.1,0,0,0,0,0,0,0,0-.1,0-.2,0,0,0-.1-.2-.1-.2,0,0,0,0,0-.1,0,0,0,0-.1,0,0,0-.1-.2-.2-.2.5-.3.7-.5.8-.5,0,.4.5.9.5.8,0,0,0,0,0-.1s0-.3.2-.5c.6-.4.5-.9.2-1.4-.3-.4-.6-.3-.8-.3-.1,0-.6.5-.7.5-.2.1-.7.5-.8.5,0,0,0,0-.1,0,0,0-.3-.4-.4-.6,0-.2-.2-.4-.2-.4,0,0,.2-.2.3-.2,0,0,.2,0,.3,0,.1,0,.6-.1.7-.2.1,0,0,0,.1,0,0,0,.1,0,.2,0,.7-.1,1.3-.8,1.4-.9,0-.1.1-.2.1-.2,0,0,0,0,0,0,0-.1.2-.3.3-.4,0,0,.1-.2.2-.3,0,0,0-.1,0-.1,0,0-.2,0-.2,0,0,0,0-.1.3-.6.2-.4.2-.5.2-.5,0,0-.1,0-.2,0,0-.2.2-.3.3-.5,0-.2.3-.5.3-.5,0,0,0,0,0,0-.2,0-1.9.8-2.8,1.5,0,0-.1,0-.2,0,0,0,0-.1.1-.2,0,0,0-.1.1-.2,0,0,.1,0,.1-.1,0,0,0,0,0,0,0,0,0,0,0,0,0,0,.1,0,.1-.1,0,0,.2-.2.2-.3,0,0,0,0,0,0,0,0,0,0,0,0,0,0,0,0,0,0,0,0,0,0,0,0-.1-.1-.4-.3-.5-.4,0,0,0,0,0,0,0,0,0,0-.1.1,0,0,0,0,0,0,0,0-.1.1-.1.2,0,0-.1.2-.1.3,0,0,0,0,0,0,0,0,0,0,0,0,0,0,0,0,0,0,0,0,0,0,0,0,0,0,0,.1,0,.2,0,0-.2.3-.2.3,0,0,0,0,0,0,0,0-.2,0-.2,0,0,0-.3,0-.3,0,0,0-.1,0-.1.1-.2,0-.3,0-.5,0,0,0,0,0,0,0,0,0,0-.5,0-.6,0,0,0,0,0,0,.4.6.9.6,1,.5,0-.1.3-.4.4-.7,0-.2,0-.4,0-.6,0-.2,0-1.1-1-1.5-.9-.4-1.7,0-1.8.1,0,0,0,0,0,0,0,0,0,0,0,0,0,0,0,0,0,0,0,0,.2,0,.2.2,0,.1.1.3,0,.3,0,0-.2.1-.3.4,0,0-.2.1-.2.2,0,0,0,.4,0,.4,0,0,0,0,0,0,0,.1-.2.3-.2.4,0,0,0,.2,0,.3.1,0,.6.1,1.4-.2,0,.1,0,.5,0,.5,0,0,0,0,0,0M248.6,12.2s0,0,0,0,0,0,0,0v1.5s0,0,0,0,0,0,0,0v-1.5ZM248.5,12.2s0,0,0,0c0,0-.1,0-.1,0v1.4s0,0,0,0c0,0,0,0,.1,0,0,0,0,0,0,0v-1.5ZM248.3,21.5s0-2.6,0-2.6c0,0,0-.2,0-.3,0,0,0,0-.1,0-.3,0-.5,0-.6,0,0,0,0,0,0,0,0,0,.2,0,.3,0,0,0,0,0,0,0,0,0-.3,0-.3,0,0,0,.2,0,.3,0,0,0,0,0,0,0,0,0-.2,0-.2,0,0,0,0,0,0,0,0,0,.3,0,.3,0,0,0-.2,0-.2,0,0,0,0,0,0,0,0,0,.2,0,.2,0,0,0-.2,0-.2,0,0,0,0,0,0,0,0,0,.2,0,.2,0,0,0-.2,0-.2,0,0,0,0,0,0,0,0,0,.2,0,.2,0,0,0-.2,0-.2,0,0,0,0,0,0,0,0,0,.2,0,.2,0,0,0-.2,0-.2,0,0,0,0,0,0,0,0,0,.2,0,.2,0,0,0-.2,0-.2,0,0,0,0,0,0,0,0,0,.2,0,.2,0,0,0-.2,0-.2,0,0,0,0,0,0,0,0,0,.2,0,.2,0,0,0,0,0,0,0s-.2,0-.2,0c0,0,0,0,0,0,0,0,.3,0,.3,0,0,0-.2,0-.3,0,0,0,0,0,0,0,0,0,.2,0,.3,0h0c0,0-.2,0-.3,0,0,0,0,0,0,0,0,0,.3,0,.3,0,0,0-.3,0-.4,0,0,0,0,0,0,0,0,0,.4,0,.4,0h0s-.3,0-.5,0c0,0,0,0,0,0,0,0,.5,0,.5.1h0c-.2,0-.4,0-.6,0,0,0-.1,0-.2,0,.2,0,.4.1.6.2,0,0,0,0,0,0,0,0-.6-.1-.6-.1,0,0,0,0,0,0,0,0-.5,0-1.1-.4-.5-.4-1-1.1-1.1-1.2,0,0,0,0,0,0,0,0,0,.1,0,.2,0,0,.5,1,.8,1.3.2.2.5.5.9.8.3.2.9.4,1.2.5.3,0,.9,0,.9,0,0,0,0,0,0,0M245.1,17.4c-.2-.2-.6-.5-.6-.5,0,0,0,0,0,0,0,0,.4.4.5.4,0,0,0,0,0,.1,0,0,0,0,0-.1M244.3,17.3s0,0,0,.1c0,0,.4.4.4.6,0,0,0,0,0,0,0,0,0,0,0,0,0,0,0-.2-.1-.3,0,0-.4-.4-.4-.4M244.2,17.1s0,0,0,0c0,0,.6.4.6.7,0,0,0,0,0,0,0,0,0,0,0,0,0,0-.1-.2-.2-.3,0,0-.5-.5-.6-.5M244.2,16.9s0,.1.1.1c0,0,.6.5.7.7,0,0,0,0,0,0,0,0,0,0,0,0,0,0,0-.2-.2-.3-.1-.1-.5-.5-.6-.5M244.2,16.8s0,.1.1.1c0,0,.6.5.7.7,0,0,0,0,0,0,0,0,0,0,0,0,0,0,0-.1-.2-.3-.1-.1-.5-.5-.6-.5M251.7,17.5s0,0,0-.1c0,0,.4-.4.5-.4,0,0,.1,0,0,0,0,0-.4.3-.6.5,0,0,0,.2,0,.1M252.1,17.7c0,0-.1.2-.1.3,0,0,0,0,0,0,0,0,0,0,0,0,0-.3.4-.6.4-.6,0,0,.1,0,0-.1,0,0-.4.4-.4.4M252.1,17.5c0,0-.2.2-.2.3,0,0,0,0,0,0,0,0,0,0,0,0,0-.3.6-.7.6-.7,0,0,.1,0,0,0,0,0-.5.4-.6.5M252,17.4c-.1.1-.2.2-.2.3,0,0,0,0,0,0,0,0,0,0,0,0,0-.2.6-.7.7-.7,0,0,.1-.1.1-.1,0,0-.5.4-.6.5M252,17.3c-.1.1-.2.2-.2.3,0,0,0,0,0,0,0,0,0,0,0,0,.1-.2.6-.6.7-.7,0,0,.1-.1.1-.1,0,0-.5.3-.6.5M248.4,18.7h0M245.7,18.4c.3.2.9.7,1.2.9,0,0,0,0,0,0,0,0-.5-.3-.5-.3h0s.3.3.5.4c0,0,0,0,0,0-.3-.2-.9-.7-1.2-.9,0,0,0-.1.1-.2M245.7,18.3c0,0,1.2.8,1.3.9,0,0,0,0,0,0,0,0,0,0,0,0,0,0-1.2-.9-1.2-.9,0,0,0,0,0,0M245.5,18.7s0,0,0,0h0c.2.2,1.2.9,1.3.9,0,0,0,0,0,0,0,0,0,0,0,0,0,0-1-.7-1.3-1h0ZM245.4,18.8s-.1,0,0,0c.5.3.9.7,1.4,1,0,0,0,0,0,0,0,0,0,0,0,0-.3-.2-1.2-.9-1.3-.9M245.7,18.6s0,0,0,0c0,0,.2.1.2.2,0,0-.2,0-.2-.1M248.3,14s0,0,0,0c-.4,0-.7-.3-.7-.6s0-.3.2-.4c0,0-.2,0-.3,0,0,0,0,0,0,0,0,.1,0,.3,0,.6,0,.3.2.6.2.8,0,0,0,0,0,0,0,0-.3.3-.4.3,0,0-.2-.2-.3-.2,0,0,0,0,0,0,0,0-.1,0-.2,0,0,0,0,0,0,0,.1.3.3.7.4.9,0,0,0,0,0,.1,0,0,.1,0,.3,0,.2,0,.4,0,.5,0h0c0,0,.2,0,.2,0v-1.5s0,0,0,0M248.5,14.1s0,0,.2,0h0s-.2,0-.2,0c0,0,0,0,0,0s0,0,0,0h.2,0s-.2,0-.2,0c0,0,0,0,0,0s0,0,0,0h.2,0s-.2,0-.2,0c0,0,0,0,0,0s0,0,0,0h.2,0s-.2,0-.2,0c0,0,0,0,0,0s0,0,0,0h.2,0s-.2,0-.2,0c0,0,0,0,0,0s0,0,0,0h.2,0s-.2,0-.2,0c0,0,0,0,0,0s0,0,0,0h.2,0s-.1,0-.1,0c0,0,0,0,0,0s0,0,0,0h.2s-.2,0-.2,0c0,0,0,0,0,0s0,0,0,0h.2s-.2,0-.2,0c0,0,0,0,0,0s0,0,0,0h.2s-.1,0-.2,0,0,0,0,0,0,0,0,0h.2s-.2,0-.2,0h0s.2,0,.2,0h0c.2,0,.5,0,.7,0s.2,0,.2,0c0,0,0,0-.1,0-.1,0-.2,0-.3,0,0,0,0,0,0,0,0,0,.4,0,.4,0,0,0,.1,0,0,0,0,0-.2,0-.3,0,0,0,0,0,0,0,0,0,.1,0,.2,0,0,0,.2,0,.1,0,0,0-.2,0-.3,0,0,0,0,0,0,0,0,0,.1,0,.2,0,0,0,.2,0,.1,0,0,0-.2,0-.3,0,0,0,0,0,0,0,0,0,.4,0,.3,0,0,0,0,0,0,0-.2,0-.4,0-.5,0h0s.5,0,.5,0c0,0,0,0,0,0,0,0-.1,0-.1,0-.1,0-.2,0-.3,0,0,0,0,0,0,0,.1,0,.3,0,.4,0,0,0,0,0,0,0,0,0-.1,0-.2,0,0,0-.2,0-.3,0,0,0-.4-.3-.4-.3,0,0,0-.2,0-.2,0,0,0-.1,0-.2,0,0,0,0,0,0,0,0,0-.3,0-.4,0-.3,0-.5,0-.6s0,0-.2-.1c-.1,0,0,0,0,0,0,.1.1.2.1.3,0,.3-.3.6-.6.6,0,0,0,0,0,0,0,0,0,0,0,0M251.2,14.2s0,.2,0,0c.2-.1.3-.1.3-.1-.2.2-.6.3-.6.3l-.2.3c0,0,.7-.3.8-.4,0,0,.4-.6.4-.7,0-.1,0-.1,0,0,0,0-.2.2-.3.2,0,0-.4.3-.4.3,0,0-.1.2-.1.2M244.7,13.2c0-.1-.2-.5-.2-.5,0,0,0,0,0,0,0,0,0,.1,0,.2,0,0,0,0,0,0,.1,0,0,.2.2.3,0,0,0,0,0,0,0,0,0,0,0,0,0,0,.2.3.2.3,0,0-.4-.3-.4-.3,0,0,.4.4.5.4,0,0,.1.3.1.3,0,0,0,0,0,0,0,0-.7-.6-.7-.7M243.4,11.9s.2.1.3.2c0,0,0,0,0,0,0,0,0,0,0,0,0,0,0,0,.2.2,0,0,0-.1,0-.1,0,0,.1.1.2.2,0,0,0,0,0,0,0,0,0,0,0,0,0,0,.1.2.1.2,0,0,0-.1,0-.2,0,0,0,0,0,0,0,0,.1.4.1.4,0,0-.2,0-.2-.1,0,0-.3-.3-.4-.3,0,0,0,.1.2.2.2.2.5.4.5.4,0,0,0,.2,0,.2-.3,0-.7-.6-.8-.6,0-.1-.5-.8-.5-.8M245.5,14s-.4-.2-.4-.3c0,0-.2-.2-.3-.2s0,0,0,0c0,.1.3.6.4.7,0,0,.7.4.8.4l-.2-.3s-.4-.1-.6-.3c0,0,.1,0,.3.1.2.1.1,0,0,0,0,0-.1-.2-.1-.2M246.9,13.4s0,0,0,0c0,0,0,.6,0,.7,0,.1,0,.3,0,.3,0,0,0,0,0,0,0,0,.2-.6.2-.9,0,0,0-.1,0-.1M249.8,13.5c0,.3.1.8.2.9,0,0,0,0,0,0,0,0,0-.2,0-.3,0-.1,0-.6,0-.7,0,0,0,0,0,0,0,0,0,0,0,.1"
     id="path41" />
  <g
     id="g107">
    <polygon
       class="st0"
       points="292.5 41.7 301.3 41.7 301.3 38.7 295.7 38.7 295.7 37.1 300.3 37.1 300.3 34.2 295.7 34.2 295.7 32.8 301.3 32.8 301.3 29.8 292.5 29.8 292.5 41.7"
       id="polygon104" />
    <path
       class="st0"
       d="M310.4,29.8s0,8.2,0,8.3h0l-2.9-8.3h-5.1v11.9h3.2v-8.6h0l3.1,8.6h4.8v-11.9h-3.2Z"
       id="path105" />
    <path
       class="st0"
       d="M320.4,41.7h-5.8v-3h5.6c.6,0,.7-.8.1-1l-3.5-1.1c-3.9-1.2-3-6.9,1-6.9h4.6v3h-4.6c-.6,0-.7.8-.1,1l3.7,1.1c3.8,1.2,3,6.8-1,6.8h0Z"
       id="path106" />
    <path
       class="st0"
       d="M342.2,37.8v-5c0-1.7-1.3-3-3-3h-5.1v3h3.2l-3.3,2.8c-2.4,2.1-1,6.1,2.2,6.1h6v-3h-6c-.5,0-.7-.6-.3-.9l3.3-3v3h3,0Z"
       id="path107" />
    <polygon
       class="st0"
       points="333.2 29.8 323.4 29.8 323.4 32.8 326.7 32.8 326.7 41.7 329.9 41.7 329.9 32.8 333.2 32.8 333.2 29.8"
       id="polygon107" />
  </g>
</svg>
